<svg xmlns="http://www.w3.org/2000/svg" xmlns:xlink="http://www.w3.org/1999/xlink" x="0" y="0" version="1.1" viewBox="0 0 750 500" style="enable-background:new 0 0 750 500" xml:space="preserve"><g id="BACKGROUND"><g><g><linearGradient id="SVGID_1_" x1="375" x2="375" y1="65.224" y2="-51.744" gradientUnits="userSpaceOnUse"><stop offset=".002" style="stop-color:#d6e1f4"/><stop offset=".604" style="stop-color:#e7edf8"/><stop offset="1" style="stop-color:#f4f7fc"/></linearGradient><path style="fill:url(#SVGID_1_)" d="M613.06,315.2c-2.449-7.778-6.603-14.915-12.577-20.653 c-10.157-9.755-24.75-15.254-31.608-27.554c-8.559-15.349-1.638-34.188,1.078-51.551c3.911-25.01-4.49-54.758-27.707-64.848 c-20.228-8.791-45.47-0.231-64.6-11.209c-22.294-12.794-24.395-44.397-41.032-63.992c-13.227-15.578-34.59-21.916-54.338-23.33 c-26.2-1.876-55.157,4.903-70.972,25.876c-14.695,19.489-16.962,49.266-38.378,60.974c-14.94,8.168-33.452,3.909-50.154,7.217 c-33.841,6.703-49.605,39.768-41.723,71.264c3.383,13.515,7.851,27.838,3.366,41.028c-6.402,18.827-28.054,27.476-40.065,43.324 c-14.498,19.13-12.575,47.494,0.648,67.527c13.223,20.032,35.734,32.452,59.001,38.349c23.267,5.897,47.559,5.976,71.562,6.02 c65.309,0.12,130.618,0.24,195.926,0.359c25.343,0.046,51.037,0.049,75.512-6.525c24.476-6.574,48.008-20.626,60.505-42.674 C615.916,349.961,618.104,331.22,613.06,315.2z"/></g><g><g><linearGradient id="SVGID_00000073702159075293703470000008202634657511463304_" x1="156.344" x2="156.344" y1="65.225" y2="-51.743" gradientUnits="userSpaceOnUse"><stop offset=".002" style="stop-color:#d6e1f4"/><stop offset=".604" style="stop-color:#e7edf8"/><stop offset="1" style="stop-color:#f4f7fc"/></linearGradient><circle style="fill:url(#SVGID_00000073702159075293703470000008202634657511463304_)" cx="156.344" cy="215.383" r="8.726"/><linearGradient id="SVGID_00000064330575160646807240000002386245640991989141_" x1="164.613" x2="164.613" y1="-18.283" y2="-212.142" gradientUnits="userSpaceOnUse"><stop offset=".002" style="stop-color:#d6e1f4"/><stop offset=".604" style="stop-color:#e7edf8"/><stop offset="1" style="stop-color:#f4f7fc"/></linearGradient><circle style="fill:url(#SVGID_00000064330575160646807240000002386245640991989141_)" cx="164.613" cy="192.257" r="4"/><linearGradient id="SVGID_00000028319796311622779500000004828366994128344759_" x1="156.344" x2="156.344" y1="-116.836" y2="-310.691" gradientUnits="userSpaceOnUse"><stop offset=".002" style="stop-color:#d6e1f4"/><stop offset=".604" style="stop-color:#e7edf8"/><stop offset="1" style="stop-color:#f4f7fc"/></linearGradient><path style="fill:url(#SVGID_00000028319796311622779500000004828366994128344759_)" d="M160.344,173.273c0,2.209-1.791,4-4,4 c-2.209,0-4-1.791-4-4c0-2.209,1.791-4,4-4C158.553,169.274,160.344,171.065,160.344,173.273z"/></g><g><linearGradient id="SVGID_00000026870445255131268970000007164581896403336856_" x1="596.027" x2="596.027" y1="62.383" y2="-54.585" gradientUnits="userSpaceOnUse"><stop offset=".002" style="stop-color:#d6e1f4"/><stop offset=".604" style="stop-color:#e7edf8"/><stop offset="1" style="stop-color:#f4f7fc"/></linearGradient><circle style="fill:url(#SVGID_00000026870445255131268970000007164581896403336856_)" cx="596.027" cy="212.542" r="8.726"/><linearGradient id="SVGID_00000179613285187976133870000018379166577456958123_" x1="582.746" x2="582.746" y1="-18.283" y2="-212.142" gradientUnits="userSpaceOnUse"><stop offset=".002" style="stop-color:#d6e1f4"/><stop offset=".604" style="stop-color:#e7edf8"/><stop offset="1" style="stop-color:#f4f7fc"/></linearGradient><circle style="fill:url(#SVGID_00000179613285187976133870000018379166577456958123_)" cx="582.746" cy="192.257" r="4"/><linearGradient id="SVGID_00000136400959224791736850000008066424393569718658_" x1="600.027" x2="600.027" y1="-115.634" y2="-309.49" gradientUnits="userSpaceOnUse"><stop offset=".002" style="stop-color:#d6e1f4"/><stop offset=".604" style="stop-color:#e7edf8"/><stop offset="1" style="stop-color:#f4f7fc"/></linearGradient><path style="fill:url(#SVGID_00000136400959224791736850000008066424393569718658_)" d="M596.027,174.475c0,2.209,1.791,4,4,4 c2.209,0,4-1.791,4-4c0-2.209-1.791-4-4-4C597.818,170.475,596.027,172.266,596.027,174.475z"/></g><g><linearGradient id="SVGID_00000080187017844949984130000014561481908819812487_" x1="455.434" x2="455.434" y1="65.224" y2="-51.744" gradientUnits="userSpaceOnUse"><stop offset=".002" style="stop-color:#d6e1f4"/><stop offset=".604" style="stop-color:#e7edf8"/><stop offset="1" style="stop-color:#f4f7fc"/></linearGradient><path style="fill:url(#SVGID_00000080187017844949984130000014561481908819812487_)" d="M449.569,67.564 c3.568,3.239,9.087,2.972,12.326-0.596c3.239-3.568,2.972-9.086-0.596-12.325c-3.568-3.239-9.086-2.972-12.325,0.596 C445.734,58.807,446.001,64.325,449.569,67.564z"/><linearGradient id="SVGID_00000145037534963224657930000006630707720303638943_" x1="431.951" x2="431.951" y1="74.127" y2="-119.734" gradientUnits="userSpaceOnUse"><stop offset=".002" style="stop-color:#d6e1f4"/><stop offset=".604" style="stop-color:#e7edf8"/><stop offset="1" style="stop-color:#f4f7fc"/></linearGradient><path style="fill:url(#SVGID_00000145037534963224657930000006630707720303638943_)" d="M429.262,54.644 c1.636,1.485,4.166,1.362,5.65-0.273c1.485-1.636,1.362-4.165-0.273-5.65c-1.635-1.485-4.165-1.363-5.65,0.273 C427.504,50.629,427.627,53.159,429.262,54.644z"/><linearGradient id="SVGID_00000165200983663935423500000015336570582375973556_" x1="456.768" x2="456.768" y1="41.111" y2="-152.746" gradientUnits="userSpaceOnUse"><stop offset=".002" style="stop-color:#d6e1f4"/><stop offset=".604" style="stop-color:#e7edf8"/><stop offset="1" style="stop-color:#f4f7fc"/></linearGradient><path style="fill:url(#SVGID_00000165200983663935423500000015336570582375973556_)" d="M454.079,84.699 c1.636,1.485,4.165,1.363,5.65-0.273c1.485-1.636,1.362-4.165-0.273-5.65c-1.636-1.485-4.165-1.363-5.65,0.273 C452.321,80.685,452.444,83.215,454.079,84.699z"/></g><g><linearGradient id="SVGID_00000132807541952667887690000008465834509813455032_" x1="292.941" x2="292.941" y1="65.224" y2="-51.744" gradientUnits="userSpaceOnUse"><stop offset=".002" style="stop-color:#d6e1f4"/><stop offset=".604" style="stop-color:#e7edf8"/><stop offset="1" style="stop-color:#f4f7fc"/></linearGradient><path style="fill:url(#SVGID_00000132807541952667887690000008465834509813455032_)" d="M298.806,67.564 c-3.568,3.239-9.087,2.972-12.326-0.596c-3.239-3.568-2.972-9.086,0.596-12.325c3.568-3.239,9.087-2.972,12.326,0.596 C302.641,58.807,302.374,64.325,298.806,67.564z"/><linearGradient id="SVGID_00000021082622386047291590000016004124174658839692_" x1="315.622" x2="315.622" y1="74.127" y2="-119.734" gradientUnits="userSpaceOnUse"><stop offset=".002" style="stop-color:#d6e1f4"/><stop offset=".604" style="stop-color:#e7edf8"/><stop offset="1" style="stop-color:#f4f7fc"/></linearGradient><path style="fill:url(#SVGID_00000021082622386047291590000016004124174658839692_)" d="M318.31,54.644 c-1.636,1.485-4.165,1.362-5.65-0.273c-1.485-1.636-1.363-4.165,0.273-5.65c1.635-1.485,4.165-1.363,5.65,0.273 C320.068,50.629,319.946,53.159,318.31,54.644z"/><linearGradient id="SVGID_00000039848448720117584150000001831341202239733654_" x1="285.322" x2="285.322" y1="49.111" y2="-144.746" gradientUnits="userSpaceOnUse"><stop offset=".002" style="stop-color:#d6e1f4"/><stop offset=".604" style="stop-color:#e7edf8"/><stop offset="1" style="stop-color:#f4f7fc"/></linearGradient><path style="fill:url(#SVGID_00000039848448720117584150000001831341202239733654_)" d="M288.011,92.699 c-1.636,1.485-4.165,1.363-5.65-0.273c-1.485-1.636-1.362-4.165,0.273-5.65c1.636-1.485,4.165-1.363,5.65,0.273 C289.769,88.685,289.647,91.215,288.011,92.699z"/></g></g></g></g><g id="OBJECTS"><g><path style="fill:#e6e6e6" d="M566.047,421.771c0,5.016-85.535,9.083-191.047,9.083s-191.047-4.066-191.047-9.083 c0-5.016,85.535-9.082,191.047-9.082S566.047,416.755,566.047,421.771z"/><g><g><g><g><path style="fill:#b62985" d="M579.383,292.975c-6.257,4.827-9.617,9.454-11.689,17.123 c-1.472,5.479-0.12,10.656-1.841,15.453c-0.716,1.997-3.688,1.631-3.845-0.478c-0.21-2.772,0.255-5.762,0.856-8.356 c0.763-3.298,3.174-11.313-4.118-8.327c-7.093,2.911-3.101,14.278-2.27,22.408c0.258,2.52-3.482,3.083-3.92,0.587 c-1.252-7.261,0.351-19.022-7.816-19.582c-9.482-0.65-1.054,17.445,0.724,21.404c1.128,2.505,7.266,13.795,0.429,11.738 c-3.855-1.156-5.131-10.194-5.692-13.362c-0.559-3.175,0.676-10.288-1.815-12.519c-4.176-3.754-6.317,2.095-6.661,5.437 c-0.775,7.555,8.944,15.601,8.88,23.138c-0.021,1.76-2.166,2.592-3.404,1.351c-2.119-2.118-3.804-4.324-5.167-7.421 c-1.733-3.949-0.91-7.806-2.184-11.384c-3.474-9.704-8.147,3.442-4.592,9.842c1.602,2.879,13.38,15.382,7.234,19.193 c-0.019,0.012-0.028,0.018-0.045,0.022c-0.12,0.077-0.246,0.145-0.38,0.211c-0.037,0.024-0.08,0.038-0.115,0.054 c-0.018,0.012-0.035,0.016-0.052,0.021c-5.768,2.271-12.778-22.833-13.767-26.404c-0.721-2.654,0.697-4.99,1.026-7.572 c0.119-0.904-0.417-1.76-1.265-2.098c-11.973-4.765-4.682,15.433-2.323,20.044c2.026,3.95,4.947,8.859,5.336,13.316 c0.373,4.35-1.252,11.393-5.751,6.869c-2.499-2.52-5.542-11-6.827-14.493c-1.613-4.384-1.434-8.533-2.207-13.05 c-0.621-3.618-3.468-10.966-7.561-6.293c-2.057,2.347-0.691,8.981-0.032,11.701c2.006,8.245,13.762,17.588,11.181,26.671 c-0.36,1.24-1.801,1.87-2.908,1.19c-6.285-3.811-9.36-17.982-11.461-23.799c-0.781-2.166-1.392-4.598-1.538-6.902 c-0.146-2.377,1.548-5.391,0.951-7.668c-1.821-6.988-7.44-2.968-9.241,1.366c-3.778,9.066,1.371,16.356,7.829,22.097 c3.347,2.968,15.21,15.26,4.795,16.4c-10.057,1.1-7.175-11.096-10.214-16.516c-2.125-3.789-6.26-4.759-8.579-8.424 c-2.008-3.167-1.591-7.169-5.15-9.42c-3.692-2.336-6.795-1.706-7.273,2.72c-0.432,3.927,3.222,7.63,5.786,10.179 c3.094,3.071,7.813,4.925,10.092,8.74c1.499,2.515,2.667,9.145-1.416,10.149c-4.055,0.986-12.942-11.145-14.967-13.942 c-5.18-7.145-6.038-11.459-5.968-19.423c0.011-0.809-0.483-1.529-1.223-1.85c-5.824-2.51-7.984,4.766-6.69,9.842 c1.511,5.863,5.937,9.926,10.42,13.692c2.711,2.28,11.516,8.043,9.697,12.063c-2.572,5.675-10.232,1.355-11.6-1.902 c-2.218-5.287-0.975-8.305-6.753-12.148c-3.664-2.425-8.288-5.697-12.819-6.199c-5.936-0.659-8.495,3.072-3.389,7.475 c3.746,3.214,9.064,3.03,13.461,5.123c5.002,2.377,9.448,9.393,2.553,12.816c-3.397,1.679-9.627,0.733-14.04-0.235 c-1.228-0.27-2.396,0.667-2.401,1.921c-0.004,1.175-0.017,2.579-0.07,3.831c-0.012,0.307-0.03,0.605-0.044,0.889 c-0.068,1.289,1.097,2.283,2.365,2.045c3.446-0.635,6.607-1.674,9.907-2.659c1.589-0.47,3.209-0.933,4.908-1.324 c0.034-0.008,0.067-0.017,0.093-0.027c4.105-0.959,5.714-1.011,6.877,0.825c0.499,0.769,0.908,1.876,1.394,3.39 c0.976,3.051,4.222,18.722,9.929,11.947c3.859-4.582-3.923-11.026-4.167-15.276c-0.015-0.258-0.018-0.497-0.015-0.727 c0.012-6.284,5.494-4.573,8.747-1.18c0.312,0.315,0.597,0.648,0.856,0.99c3.488,4.604,3.727,10.507,3.685,15.989 c-0.04,3.695-1.132,10.736,4.342,11.69c7.855,1.366,4.159-10.08,2.309-13.601c-2.094-4.004-11.865-13.699-4.033-13.785 c12.954-0.138,14.028,21.629,25.318,24.726c1.2,0.327,2.399-0.571,2.462-1.804c0.211-4.039-4.42-6.987-6.878-9.839 c-1.678-1.95-9.773-10.521-9.454-12.59c0.615-3.998,7.746-2.918,10.645-1.535c7.3,3.461,7.343,12.611,8.99,19.411 c2.044,8.436,11.433,11.649,10.075,1.066c-0.946-7.424-8.184-12.724-11.898-18.729c-5.67-9.152,4.151-4.176,8.313-0.831 c3.917,3.157,6.636,8.117,8.434,12.819c2.726,7.139-0.954,17.968,8.302,21.39c13.757,5.077-1.479-25.281-4.063-29.155 c-2.44-3.659-6.618-5.228-9.892-7.766c-3.505-2.716-5.694-7.266,0.602-7.379c3.901-0.066,6.543,3.979,8.55,6.565 c4.792,6.162,7.549,16.599,14.513,20.686c10.902,6.39,12.138-4.824,5.374-11.053c-5.182-4.785-11.1-8.564-16.732-12.565 c-1.754-1.243-8.314-5.576-4.026-6.861c1.965-0.586,7.028,2.997,8.64,3.875c6.019,3.284,10.203,7.834,15.639,11.896 c3.545,2.646,20.579,8.903,16.018-0.372c-2.28-4.641-12.511-7.856-16.54-11.013c-1.825-1.426-7.699-4.249-11.578-6.673 c-1.642-1.028-0.976-3.56,0.96-3.652c4.29-0.211,8.523,0.169,12.282,2.671c5.492,3.661,4.412,9.306,11.712,10.883 c5.715,1.23,11.133-0.244,6.695-6.28c-2.914-3.962-9.247-6.504-13.479-8.768c-2.782-1.485-10.551-2.736-12.575-4.921 c-5.2-5.608,6.747-1.771,9.227-1.012c4.043,1.245,29.866,11.314,28.14-0.669c-0.857-5.982-15.115-4.175-23.028-4.226 c-2.001-0.01-2.74-2.652-1.03-3.675c8.037-4.826,21.154-1.033,27.693-6.673c6.557-5.651-2.147-6.623-6.938-5.655 c-3.367,0.676-9.449,5.064-13.691,5.707c-1.736,0.271-2.923-1.746-1.86-3.15c3.188-4.204,9.389-9.21,12.685-11.952 c4.56-3.792,18.02-5.187,18.505-12.178c0.483-6.984-7.999-1.58-12.669,2.029c-1.034,0.798-1.874,1.512-2.397,1.978 c-1.972,1.777-5.644,6.598-9.163,9.92c-1.654,1.56-4.232-0.42-3.099-2.397c2.596-4.549,5.537-9.006,8.857-13.126 c3.149-3.919,16.464-10.702,16.977-15.287C600.408,282.964,582.456,290.597,579.383,292.975z"/></g></g><g><g><path style="fill:#da73b6" d="M579.117,251.537c-7.036,5.516-13.047,7.911-22.033,8.047 c-6.418,0.088-11.718-2.837-17.457-2.287c-2.389,0.229-2.816,3.59-0.547,4.35c2.981,1.003,6.39,1.326,9.402,1.39 c3.829,0.082,13.29-0.328,7.984,6.836c-5.168,6.966-16.521-0.578-25.204-3.755c-2.692-0.985-4.35,2.959-1.735,4.135 c7.613,3.397,20.957,4.916,19.295,14.027c-1.93,10.579-19.423-3.705-23.269-6.758c-2.432-1.934-13.102-11.811-12.752-3.741 c0.193,4.55,9.749,8.467,13.066,9.965c3.326,1.498,11.469,2.126,13.222,5.479c2.952,5.625-4.058,6.344-7.819,5.789 c-8.501-1.255-14.616-14.155-22.898-16.185c-1.936-0.468-3.447,1.653-2.43,3.356c1.732,2.913,3.681,5.376,6.697,7.734 c3.847,3,8.306,3.173,11.875,5.566c9.673,6.514-6.045,7.975-12.071,2.293c-2.71-2.559-13.139-18.958-19.03-13.281 c-0.018,0.017-0.027,0.026-0.036,0.043c-0.118,0.11-0.227,0.23-0.337,0.358c-0.036,0.034-0.064,0.077-0.091,0.111 c-0.018,0.017-0.027,0.034-0.037,0.052c-4.098,5.692,21.477,20.374,25.117,22.453c2.709,1.53,5.666,0.625,8.589,0.985 c1.024,0.122,1.814,0.947,1.948,1.971c1.889,14.457-18.228,0.833-22.627-3.037c-3.767-3.323-8.336-7.893-13.114-9.562 c-4.666-1.621-12.842-1.802-9.135,4.393c2.066,3.443,10.518,9.143,13.99,11.524c4.358,2.991,8.957,3.95,13.695,6.057 c3.794,1.689,11.059,6.858,4.794,10.044c-3.146,1.602-10.04-1.745-12.839-3.225c-8.482-4.497-15.452-19.991-26.131-19.692 c-1.461,0.049-2.552,1.454-2.115,2.857c2.428,7.954,17.11,15.274,22.904,19.199c2.158,1.46,4.654,2.807,7.141,3.609 c2.566,0.823,6.343-0.196,8.673,1.093c7.156,3.944,1.181,8.985-4.073,9.753c-10.995,1.616-17.553-6.06-22.049-14.742 c-2.322-4.497-12.495-20.931-16.647-9.827c-4.008,10.722,10.168,10.959,15.265,15.802c3.562,3.386,3.475,8.19,6.846,11.755 c2.913,3.084,7.417,3.741,8.894,8.272c1.533,4.699-0.023,7.926-5.009,7.217c-4.427-0.62-7.469-5.659-9.55-9.181 c-2.506-4.248-3.224-9.94-6.772-13.502c-2.34-2.344-9.285-5.472-11.523-1.275c-2.211,4.172,8.615,17.297,11.118,20.297 c6.392,7.671,10.883,9.814,19.635,11.956c0.89,0.214,1.542,0.956,1.688,1.857c1.129,7.085-7.45,7.427-12.657,4.593 c-6.008-3.291-9.23-9.276-12.11-15.241c-1.745-3.608-5.61-14.869-10.525-13.994c-6.94,1.24-4.338,10.843-1.147,13.25 c5.18,3.905,8.835,3.384,11.439,10.79c1.638,4.694,3.938,10.675,3.225,15.784c-0.932,6.692-5.736,8.459-9.141,1.633 c-2.481-5.003-0.797-10.783-1.867-16.188c-1.213-6.148-7.668-12.977-13.342-6.37c-2.788,3.257-3.486,10.352-3.654,15.461 c-0.047,1.422-1.399,2.441-2.776,2.097c-1.29-0.324-2.833-0.699-4.221-0.991c-0.34-0.073-0.672-0.136-0.987-0.199 c-1.432-0.284-2.198-1.839-1.583-3.163c1.656-3.601,3.676-6.778,5.676-10.122c0.958-1.612,1.917-3.259,2.819-5.013 c0.019-0.034,0.037-0.069,0.056-0.095c2.195-4.234,2.701-5.984,1.011-7.771c-0.704-0.761-1.804-1.518-3.329-2.473 c-3.074-1.92-19.353-9.846-10.333-14.216c6.099-2.954,10.998,7.374,15.59,8.826c0.278,0.088,0.54,0.158,0.792,0.219 c6.894,1.738,6.545-4.75,3.732-9.263c-0.258-0.43-0.544-0.835-0.848-1.214c-4.077-5.108-10.482-7.015-16.506-8.496 c-4.063-0.986-12.088-1.75-11.609-8.018c0.691-8.994,12.212-1.752,15.558,1.258c3.807,3.412,11.715,16.828,13.992,8.264 c3.761-14.166-19.808-21.409-20.059-34.652c-0.024-1.407,1.294-2.471,2.665-2.198c4.488,0.895,6.429,6.794,8.872,10.284 c1.67,2.384,8.814,13.648,11.171,13.875c4.555,0.44,5.358-7.681,4.649-11.246c-1.762-8.969-11.783-11.566-18.78-15.267 c-8.681-4.592-9.588-15.782,1.638-11.345c7.878,3.106,11.672,12.52,17.223,18.265c8.456,8.767,5.736-3.388,3.227-8.884 c-2.37-5.175-7.051-9.539-11.707-12.82c-7.069-4.978-19.968-3.96-21.142-15.063c-1.734-16.5,27.311,8.666,30.838,12.579 c3.332,3.695,3.888,8.714,5.759,13.011c2.002,4.601,6.381,8.268,8.259,1.396c1.16-4.26-2.54-8.283-4.817-11.205 c-5.422-6.971-16.098-12.903-18.639-21.678c-3.969-13.735,8.672-11.966,13.618-2.813c3.803,7.015,6.297,14.558,9.116,21.848 c0.874,2.27,3.797,10.671,6.401,6.327c1.19-1.991-1.327-8.542-1.842-10.554c-1.924-7.516-5.747-13.371-8.687-20.463 c-1.913-4.624-4.028-25.047,4.871-17.46c4.454,3.793,5.128,15.908,7.467,21.205c1.055,2.399,2.514,9.627,4.092,14.556 c0.669,2.087,3.632,2.061,4.272-0.035c1.427-4.646,2.189-9.393,0.493-14.212c-2.484-7.042-8.975-7.431-8.671-15.875 c0.243-6.609,3.369-12.14,8.752-5.592c3.532,4.299,4.555,11.952,5.858,17.224c0.853,3.464,0.06,12.332,1.892,15.16 c4.7,7.264,3.821-6.905,3.68-9.836c-0.238-4.78-4.084-35.902,8.575-30.671c6.321,2.607,0.366,17.738-1.782,26.429 c-0.547,2.197,2.144,3.744,3.743,2.153c7.531-7.469,7.027-22.909,15.033-28.507c8.023-5.616,6.664,4.2,4.268,9.183 c-1.68,3.504-8.186,8.95-10.073,13.423c-0.781,1.829,1.1,3.692,2.936,2.917c5.499-2.324,12.716-7.729,16.641-10.579 c5.429-3.943,10.708-18.314,18.51-16.898c7.793,1.416-0.496,9.211-5.755,13.327c-1.164,0.911-2.18,1.633-2.836,2.077 c-2.498,1.667-8.808,4.351-13.43,7.284c-2.172,1.379-0.719,4.757,1.764,4.065c5.712-1.579,11.419-3.562,16.862-6.055 c5.175-2.361,16.323-15.072,21.493-14.357C595.953,231.271,582.58,248.83,579.117,251.537z"/></g></g><g><g><g><path style="fill:#ec3434" d="M507.528,326.803l0.003,0.002c-0.204,0.173-0.411,0.348-0.62,0.521 C507.117,327.15,507.324,326.975,507.528,326.803z"/><path style="fill:#ec3434" d="M462.176,382.163l0.003,0.002c-0.079,0.136-0.155,0.279-0.233,0.42 C462.024,382.444,462.098,382.303,462.176,382.163z"/><path style="fill:#ec3434" d="M450.959,406.525c0.211-0.56,0.425-1.112,0.642-1.668c0.196-0.505,0.394-1.007,0.596-1.503 c0.516-1.298,1.045-2.581,1.585-3.849c2.727-0.075,5.279-0.349,7.657-0.772c2.406-0.428,1.858-4.023-0.572-3.758 c-2.084,0.227-3.892,0.333-5.269,0.381c0.52-1.146,1.044-2.281,1.58-3.403c0.238-0.507,0.48-1.006,0.721-1.506 c0.902-1.849,1.82-3.669,2.76-5.452c0.189-0.365,0.383-0.727,0.577-1.088c0.308-0.585,0.625-1.164,0.935-1.738 c0.003-0.001,0.004-0.002,0.007-0.003c2.474,0.766,4.857,1.31,7.135,1.674c2.434,0.389,3.124-3.185,0.722-3.735 c-2.435-0.558-4.444-1.149-5.812-1.588c0.638-1.109,1.285-2.204,1.935-3.284c0.265-0.441,0.532-0.881,0.803-1.319 c0.371-0.603,0.745-1.205,1.119-1.801c0.248-0.396,0.497-0.787,0.746-1.179c0.236-0.368,0.472-0.736,0.708-1.099 c0.219-0.339,0.436-0.675,0.659-1.008c0.202-0.31,0.405-0.616,0.605-0.919c0.292-0.442,0.59-0.879,0.883-1.316 c0.001,0,0.001,0,0.002-0.001c3.398,1.24,6.641,2.055,9.695,2.547c2.415,0.389,3.11-3.187,0.725-3.735 c-4.666-1.072-7.754-2.262-7.754-2.262s-0.196,0.129-0.503,0.332c0.298-0.421,0.594-0.845,0.894-1.262 c0.314-0.435,0.626-0.867,0.938-1.294c0.35-0.478,0.7-0.952,1.054-1.424c0.088-0.121,0.181-0.243,0.27-0.364 c0.28-0.372,0.561-0.745,0.844-1.115c0.037-0.051,0.077-0.105,0.117-0.154c0.17-0.227,0.34-0.448,0.515-0.671 c0.727-0.949,1.459-1.883,2.193-2.802c0.341-0.427,0.683-0.85,1.023-1.269c0.326-0.401,0.653-0.797,0.98-1.194 c0.247-0.298,0.496-0.599,0.745-0.895c0.297-0.356,0.593-0.709,0.891-1.061c0.4-0.475,0.806-0.945,1.208-1.41 c0.03-0.036,0.06-0.071,0.093-0.105c0.347-0.407,0.697-0.806,1.05-1.204c0.12-0.135,0.239-0.271,0.359-0.406 c0.269-0.306,0.539-0.608,0.809-0.91c0.422-0.471,0.846-0.937,1.267-1.4c0.222-0.242,0.444-0.484,0.667-0.726 c0.102-0.111,0.204-0.222,0.308-0.331c0.215-0.232,0.432-0.464,0.647-0.696c0.077-0.084,0.154-0.165,0.231-0.246 c0.321-0.343,0.642-0.681,0.964-1.02c0.999-1.049,2-2.073,3-3.079c0.62-0.105,1.218-0.207,1.838-0.313 c3.382,1.66,8.678,3.564,15.031,3.455c2.291-0.039,2.573-3.347,0.322-3.772c-4.042-0.764-8.449-2.082-12.05-4.353 c1.619-1.515,3.232-2.971,4.835-4.374c0.26-0.231,0.525-0.458,0.785-0.684c0.479-0.414,0.958-0.828,1.431-1.233 c0.298-0.034,0.598-0.069,0.896-0.103c3.311,1.738,8.959,3.988,15.852,3.869c2.301-0.04,2.593-3.346,0.331-3.773 c-3.982-0.752-8.318-2.042-11.89-4.25c0-0.001,0-0.001,0-0.001c0.441-0.35,0.883-0.694,1.321-1.038 c0.346-0.271,0.693-0.537,1.036-0.802c0.528-0.406,1.052-0.807,1.575-1.2c0.433-0.327,0.862-0.649,1.292-0.966 c1.711-1.269,3.395-2.477,5.042-3.619l0.003,0.002c2.02,0.833,4.73,1.679,7.895,1.991c2.338,0.231,2.911-3.192,0.627-3.741 c-1.368-0.328-2.733-0.746-4.038-1.276c0.262-0.172,0.521-0.341,0.779-0.507c0.23-0.145,0.457-0.293,0.682-0.437 c0.934-0.6,1.857-1.18,2.757-1.734c0.629-0.386,1.247-0.763,1.857-1.13c0.214-0.129,0.423-0.252,0.635-0.378 c0.316-0.19,0.635-0.377,0.947-0.562c1.747-1.025,3.408-1.959,4.966-2.804c0.182-0.102,0.365-0.2,0.547-0.297 c1.095-0.59,2.137-1.135,3.124-1.639c0.316-0.161,0.628-0.317,0.93-0.471c1.825-0.91,3.43-1.667,4.782-2.275 c0.111-0.051,0.221-0.099,0.332-0.149c0.323-0.143,0.633-0.28,0.93-0.409c0.101-0.042,0.197-0.083,0.288-0.124 c0.532-0.226,1.007-0.423,1.415-0.587c0.097-0.037,0.191-0.075,0.278-0.11c0.672-0.264,1.134-0.429,1.378-0.503 c-1.34,0.303-2.667,0.624-3.982,0.967c4.659-1.763,8.708-3.014,11.914-3.851c0.065,0.385,0.049,0.784,0.019,1.193 c-1.413,19.129-3.988,46.18-27.555,57.422c-13.712-1.996-37.455-4.495-47.991,0.533l42.76,6.549 c-4.469,5.882-8.758,11.112-12.39,15.375c-15.699,18.429-38.118,29.942-62.303,31.753c-1.541,0.116-2.833,0.173-3.844,0.197 c0.206-0.559,0.415-1.115,0.625-1.667C450.937,406.578,450.949,406.55,450.959,406.525z"/><path style="opacity:.5;fill:#ec3434" d="M447.901,401.229c0.691-1.516,1.39-3.018,2.097-4.51 c-0.002,0.003,0.001,0.005,0.001,0.005C449.294,398.217,448.593,399.717,447.901,401.229z"/><path style="opacity:.5;fill:#ec3434" d="M506.701,320.18c-0.307,0.234-0.611,0.469-0.917,0.707 c0.303-0.24,0.609-0.478,0.916-0.712L506.701,320.18z"/><path style="opacity:.5;fill:#ec3434" d="M477.18,350.521c-0.756,1.006-1.506,2.026-2.247,3.051 C475.674,352.542,476.423,351.522,477.18,350.521z"/><path style="opacity:.5;fill:#ec3434" d="M544.124,300.694c0.772-0.244,1.551-0.475,2.333-0.703 C545.675,300.219,544.896,300.454,544.124,300.694z"/><path style="opacity:.5;fill:#ec3434" d="M530.015,306.096c-1.542,0.704-3.062,1.441-4.563,2.208 c1.499-0.769,3.021-1.508,4.563-2.213L530.015,306.096z"/><path style="opacity:.5;fill:#ec3434" d="M484.909,340.912c1.28-1.486,2.579-2.941,3.902-4.362 C487.491,337.973,486.192,339.429,484.909,340.912z"/><path style="opacity:.5;fill:#ec3434" d="M483.382,342.708c0,0-0.003-0.002-0.001-0.005 c0.507-0.603,1.014-1.201,1.528-1.791C484.396,341.507,483.889,342.105,483.382,342.708z"/><path style="opacity:.5;fill:#ec3434" d="M466.922,365.49c-1.043,1.663-2.07,3.346-3.09,5.051 c1.012-1.706,2.042-3.391,3.089-5.055C466.92,365.488,466.922,365.49,466.922,365.49z"/><path style="opacity:.5;fill:#ec3434" d="M469.828,360.973l-0.001-0.005c1.662-2.522,3.364-4.991,5.106-7.397 C473.194,355.985,471.493,358.453,469.828,360.973z"/><path style="opacity:.5;fill:#ec3434" d="M452.341,391.848c0.26-0.531,0.522-1.058,0.786-1.583 c-0.261,0.527-0.523,1.053-0.783,1.585L452.341,391.848z"/><path style="opacity:.5;fill:#ec3434" d="M459.961,377.264c1.263-2.269,2.55-4.505,3.862-6.705 C462.514,372.762,461.227,374.997,459.961,377.264z"/><path style="fill:#ec3434" d="M549.68,299.108c-0.534,0.138-1.065,0.277-1.593,0.424c-0.544,0.151-1.087,0.302-1.63,0.458 c-0.782,0.229-1.561,0.459-2.333,0.703c-0.78,0.243-1.551,0.491-2.317,0.749c-0.383,0.124-0.764,0.254-1.146,0.388 c-1.909,0.659-3.785,1.358-5.633,2.103c-0.798-1.477-0.766-3.474-0.404-5.414c0.315-1.686-2.028-2.484-2.811-0.958 c-1.665,3.242-1.868,6.56-1.799,8.531c-1.542,0.704-3.064,1.444-4.563,2.213c-0.502,0.252-1,0.51-1.495,0.776 c-0.496,0.26-0.993,0.528-1.482,0.797c-0.492,0.267-0.981,0.541-1.467,0.817c-0.462,0.26-0.917,0.522-1.374,0.79 c-0.509,0.296-1.018,0.597-1.521,0.901c4.369-4.627,9.472-16.361,12.459-23.838c9.865-1.018,19.531-0.057,28.448,3.5 c1.392,0.556,2.358,1.785,2.586,3.206c-3.208,0.837-7.261,2.09-11.923,3.854C549.681,299.108,549.68,299.108,549.68,299.108z"/><path style="fill:#ec3434" d="M515.388,314.086c-0.087,0.056-0.176,0.111-0.262,0.167c-0.32,0.207-0.641,0.414-0.959,0.623 c-0.398,0.262-0.795,0.529-1.192,0.795c-0.244,0.16-0.484,0.323-0.723,0.486c-0.288,0.197-0.577,0.399-0.867,0.599 c-0.25,0.172-0.499,0.345-0.744,0.521c-0.015,0.01-0.028,0.021-0.043,0.03c-0.035-1.931,0.197-3.894,0.558-5.738 c0.353-1.805-2.213-2.547-2.878-0.831c-1.387,3.579-1.649,6.983-1.579,9.437c-0.307,0.234-0.613,0.472-0.916,0.712 c-0.307,0.233-0.61,0.474-0.911,0.716c-0.306,0.238-0.607,0.48-0.905,0.724c-0.301,0.242-0.601,0.489-0.899,0.733 c-0.301,0.242-0.598,0.491-0.893,0.742c-0.3,0.247-0.599,0.498-0.891,0.751c-0.592,0.499-1.178,1.008-1.758,1.524 c-0.745-2.34-1.02-4.906-1.046-7.323c-0.02-1.829-2.688-2.017-2.988-0.212c-0.73,4.386-0.029,8.235,0.648,10.616 c-0.24,0.221-0.474,0.445-0.71,0.673c-0.07,0.068-0.141,0.136-0.211,0.204c-0.215,0.198-0.426,0.402-0.635,0.609 c-0.116,0.113-0.236,0.227-0.352,0.341c-0.47,0.457-0.935,0.917-1.398,1.383c-0.272,0.271-0.547,0.545-0.816,0.822 c-0.267,0.275-0.539,0.551-0.808,0.828c-0.272,0.276-0.541,0.554-0.806,0.838c-0.535,0.557-1.067,1.122-1.593,1.694 c-1.323,1.421-2.622,2.876-3.902,4.362c-0.514,0.59-1.021,1.188-1.528,1.791c-1.615-4.061-2.31-8.669-2.322-13.685 c-0.004-1.813-2.633-2.05-2.98-0.271c-1.64,8.424-0.059,15.655,1.037,19.237c-0.219,0.277-0.437,0.559-0.65,0.845 c-0.112,0.141-0.222,0.287-0.333,0.433c-0.177,0.225-0.347,0.452-0.519,0.681c-0.144,0.192-0.288,0.383-0.434,0.577 c-0.757,1.002-1.507,2.021-2.247,3.051c-1.742,2.406-3.444,4.875-5.106,7.397c-0.815-2.802-2.003-7.596-2.503-13.112 c-0.17-1.876-2.931-1.816-3,0.065c-0.187,5.095,0.436,11.023,2.598,17.564c-1.047,1.664-2.077,3.349-3.089,5.055 c-0.001,0.007-0.005,0.013-0.009,0.018c-1.312,2.201-2.599,4.436-3.862,6.705c-0.375,0.671-0.745,1.341-1.114,2.015 c-1.394-6.682-1.909-35.517-2.079-51.163c16.987-17.521,41.352-33.192,65.428-38.251l-5.179,23.195 c-0.389,0.239-0.778,0.483-1.164,0.729C515.696,313.885,515.54,313.986,515.388,314.086z"/><path style="fill:#ec3434" d="M458.777,379.414c-0.276,0.507-0.55,1.012-0.824,1.522c-0.276,0.508-0.55,1.017-0.822,1.531 c-0.271,0.511-0.544,1.026-0.814,1.542c-0.268,0.513-0.538,1.03-0.808,1.55c-0.27,0.516-0.535,1.036-0.799,1.556 c-0.534,1.041-1.062,2.091-1.584,3.149c-0.264,0.525-0.525,1.051-0.786,1.583c-3.239-5.039-5.296-10.87-6.597-16.011 c-0.474-1.874-3.299-1.257-2.932,0.641c1.575,8.169,5.359,16.517,7.186,20.24c-0.707,1.492-1.405,2.995-2.097,4.51 c-0.35,0.755-0.691,1.516-1.033,2.277c-0.344,0.759-0.685,1.524-1.024,2.292c-1.917-2.643-3.515-5.585-4.852-8.637 c-8.285-18.889-5.671-40.522,5.886-57.336C447.92,362.386,457.46,377.436,458.777,379.414z"/></g></g><path style="fill:#ec3434" d="M458.777,379.414c-0.276,0.507-0.55,1.012-0.824,1.522c-0.276,0.508-0.55,1.017-0.822,1.531 c-0.271,0.511-0.544,1.026-0.814,1.542c-0.268,0.513-0.538,1.03-0.808,1.55c-0.27,0.516-0.535,1.036-0.799,1.556 c-0.534,1.041-1.062,2.091-1.584,3.149c-0.264,0.525-0.525,1.051-0.786,1.583c-3.199-4.977-5.315-10.562-6.701-15.462 c-0.561-1.983-3.55-1.256-3.115,0.758c1.701,7.878,5.646,15.851,7.473,19.574c-0.707,1.492-1.405,2.995-2.097,4.51 c-0.35,0.755-0.691,1.516-1.033,2.277c-0.344,0.759-0.685,1.524-1.024,2.292c-1.917-2.643-3.515-5.585-4.852-8.637 c-8.285-18.889-5.671-40.522,5.886-57.336C447.92,362.386,457.46,377.436,458.777,379.414z"/><path style="fill:#ff5e5c" d="M447.901,401.229c0.692-1.511,1.393-3.012,2.097-4.506c0,0-0.003-0.002-0.001-0.005 c-2.381-4.853-8.091-17.571-7.893-27.502c0.027-1.37,2.023-1.498,2.242-0.146c0.995,6.124,3.2,15.317,7.995,22.777l0.003,0.002 c0.26-0.531,0.522-1.058,0.783-1.585c0.522-1.058,1.05-2.108,1.584-3.149c0.265-0.52,0.529-1.04,0.799-1.556 c0.269-0.521,0.539-1.037,0.808-1.55c0.27-0.516,0.543-1.03,0.814-1.542c0.273-0.514,0.546-1.024,0.822-1.531 c0.273-0.51,0.548-1.015,0.824-1.522c0.022-0.046,0.046-0.086,0.07-0.135c0.369-0.674,0.739-1.344,1.114-2.015 c1.266-2.268,2.553-4.503,3.862-6.705c0.004-0.005,0.008-0.011,0.009-0.018c1.02-1.705,2.047-3.387,3.09-5.051 c0,0-0.003-0.002-0.001-0.005c-2.982-9.023-3.036-16.882-2.075-22.993c0.216-1.376,2.246-1.23,2.242,0.162 c-0.022,7.614,1.676,14.659,2.739,18.314l0.001,0.005c1.665-2.52,3.366-4.989,5.105-7.401c0.741-1.025,1.491-2.045,2.247-3.051 c0.146-0.194,0.29-0.386,0.434-0.577c0.172-0.229,0.341-0.456,0.519-0.681c0.111-0.146,0.221-0.292,0.333-0.433 c0.098-0.131,0.197-0.262,0.297-0.391c0.217-0.282,0.293-0.647,0.194-0.99c-1.236-4.275-2.837-12.744-0.011-22.228 c0.381-1.278,2.277-0.94,2.204,0.391c-0.343,6.345,0.257,12.128,2.231,17.092c-0.002,0.003,0.001,0.005,0.001,0.005 c0.507-0.603,1.014-1.201,1.527-1.796c1.283-1.484,2.582-2.939,3.902-4.362c0.526-0.573,1.058-1.137,1.593-1.694 c0.266-0.284,0.535-0.562,0.806-0.838c0.269-0.278,0.541-0.553,0.808-0.828c0.269-0.278,0.543-0.551,0.816-0.822 c0.464-0.465,0.928-0.926,1.398-1.383c0.116-0.113,0.236-0.227,0.352-0.341c0.209-0.206,0.42-0.411,0.635-0.609 c0.07-0.068,0.141-0.136,0.211-0.204c0.074-0.071,0.148-0.142,0.222-0.213c0.295-0.282,0.419-0.694,0.318-1.09 c-0.791-3.091-1.445-8.113,0.421-13.541c0.435-1.264,2.295-0.896,2.197,0.437c-0.196,2.68-0.18,5.858,0.459,8.838 c0.18,0.84,1.186,1.187,1.84,0.629c0.132-0.113,0.265-0.225,0.398-0.337c0.292-0.253,0.591-0.504,0.891-0.751 c0.295-0.251,0.592-0.5,0.893-0.742c0.298-0.244,0.598-0.491,0.899-0.733c0.298-0.244,0.599-0.486,0.905-0.724 c0.301-0.242,0.604-0.482,0.911-0.716c0.306-0.238,0.61-0.474,0.917-0.707l-0.001-0.005c-0.091-3.204,0.383-8.026,3.186-12.742 c0.674-1.133,2.412-0.375,2.052,0.893c-0.754,2.651-1.396,5.859-1.339,8.982c0.015-0.009,0.028-0.021,0.043-0.03 c0.244-0.176,0.494-0.348,0.744-0.521c0.29-0.2,0.579-0.402,0.867-0.599c0.239-0.163,0.478-0.327,0.723-0.486 c0.397-0.267,0.794-0.533,1.192-0.795c0.318-0.209,0.638-0.416,0.959-0.623c0.087-0.056,0.176-0.111,0.262-0.167 c0.151-0.1,0.307-0.2,0.464-0.296c0.386-0.246,0.774-0.49,1.164-0.729c0.362-0.23,0.726-0.451,1.096-0.676 c0.503-0.305,1.012-0.605,1.521-0.901c0.456-0.269,0.911-0.53,1.374-0.79c0.486-0.276,0.975-0.549,1.467-0.817 c0.49-0.269,0.986-0.537,1.482-0.797c0.495-0.265,0.993-0.524,1.495-0.776c1.501-0.767,3.021-1.504,4.563-2.208l-0.001-0.005 c-0.085-2.413,0.239-6.846,3.154-10.686c0.755-0.995,2.32-0.175,1.966,1.023c-0.605,2.046-1.025,4.435-0.548,6.342 c0.162,0.648,0.876,0.986,1.498,0.742c1.506-0.589,3.031-1.15,4.577-1.683c0.382-0.133,0.762-0.264,1.146-0.388 c0.765-0.257,1.537-0.506,2.317-0.749c0.773-0.239,1.551-0.475,2.333-0.703c0.543-0.156,1.087-0.307,1.63-0.458 c0.528-0.146,1.059-0.286,1.593-0.424c0.005-0.001,0.007-0.003,0.011-0.004c1.314-0.342,2.642-0.663,3.982-0.967 c-0.244,0.074-0.706,0.238-1.378,0.503c-0.087,0.035-0.182,0.073-0.278,0.11c-0.408,0.164-0.883,0.361-1.415,0.587 c-0.091,0.04-0.188,0.081-0.288,0.124c-0.297,0.129-0.607,0.266-0.93,0.409c-0.111,0.051-0.221,0.099-0.332,0.149 c-1.352,0.608-2.957,1.365-4.782,2.275c-0.302,0.154-0.614,0.31-0.93,0.471c-0.987,0.504-2.029,1.049-3.124,1.639 c-0.183,0.098-0.365,0.195-0.547,0.297c-1.558,0.845-3.219,1.78-4.966,2.804c-0.312,0.184-0.631,0.372-0.947,0.562 c-0.212,0.126-0.421,0.249-0.635,0.378c-0.61,0.367-1.228,0.744-1.857,1.13c-0.9,0.555-1.823,1.134-2.757,1.734 c-0.225,0.145-0.453,0.292-0.682,0.437c-0.258,0.166-0.518,0.335-0.779,0.507c3.694,1.499,7.87,2.101,11.216,2.322 c1.304,0.086,1.438,1.946,0.163,2.229c-6.572,1.457-12.296-0.054-15.863-1.526l-0.003-0.002 c-1.648,1.143-3.331,2.35-5.042,3.619c-0.43,0.317-0.859,0.639-1.292,0.966c-0.523,0.393-1.047,0.794-1.575,1.2 c-0.342,0.265-0.69,0.531-1.036,0.802c-0.004,0.003-0.009,0.007-0.013,0.01c0.079,0.933,0.079,0.93,0.157,1.863 c5.203,2.729,11.587,3.794,16.178,4.204c1.281,0.114,1.4,1.939,0.145,2.226c-10.048,2.298-18.435-1.116-22.55-3.362 l-0.003-0.002c-0.204,0.172-0.411,0.347-0.617,0.522c-0.41,0.352-0.824,0.71-1.238,1.067c-0.26,0.226-0.525,0.453-0.785,0.684 c-1.233,1.079-2.471,2.189-3.714,3.334c-0.566,0.521-0.457,1.456,0.219,1.822c5.256,2.846,11.795,3.943,16.472,4.359 c1.279,0.114,1.4,1.938,0.148,2.225c-8.647,1.977-16.063-0.276-20.586-2.374c-1.04,0.192-2.053,0.38-3.093,0.572 c-0.808,0.818-1.616,1.649-2.423,2.496c-0.322,0.338-0.643,0.677-0.964,1.02c-0.073,0.076-0.146,0.152-0.218,0.231 c-0.225,0.242-0.449,0.484-0.674,0.725c-0.1,0.105-0.197,0.211-0.294,0.317c-0.222,0.242-0.444,0.484-0.667,0.726 c-0.421,0.463-0.845,0.929-1.267,1.4c-0.27,0.302-0.54,0.603-0.809,0.91c-0.12,0.135-0.239,0.271-0.359,0.406 c-0.353,0.398-0.703,0.798-1.05,1.204c-0.033,0.034-0.063,0.069-0.093,0.105c-0.402,0.465-0.808,0.936-1.208,1.41 c-0.298,0.351-0.594,0.705-0.891,1.061c-0.249,0.296-0.498,0.597-0.745,0.895c-0.327,0.396-0.654,0.793-0.98,1.194 c-0.34,0.42-0.682,0.842-1.023,1.269c-0.734,0.919-1.466,1.853-2.193,2.802c-0.175,0.223-0.346,0.445-0.515,0.671 c-0.04,0.049-0.079,0.103-0.117,0.154c-0.283,0.37-0.564,0.743-0.844,1.115c-0.089,0.121-0.181,0.243-0.27,0.364 c-0.353,0.472-0.704,0.946-1.054,1.424c-0.312,0.427-0.624,0.86-0.938,1.294c-0.3,0.417-0.596,0.841-0.894,1.262 c0.307-0.203,0.503-0.332,0.503-0.332s9.775,3.765,20.823,3.936c1.394,0.021,1.538,2.051,0.158,2.243 c-6.098,0.848-13.908,0.661-22.823-2.435c-0.49,0.161-0.826,0.272-1.315,0.434c-0.132,0.196-0.264,0.392-0.394,0.59 c-0.201,0.303-0.403,0.608-0.605,0.919c-0.223,0.332-0.439,0.669-0.659,1.008c-0.237,0.363-0.472,0.731-0.708,1.099 c-0.249,0.391-0.498,0.783-0.746,1.179c-0.374,0.597-0.748,1.198-1.119,1.801c-0.27,0.438-0.538,0.877-0.803,1.319 c-0.409,0.68-0.816,1.365-1.221,2.056c-0.369,0.629-0.049,1.442,0.65,1.649c3.796,1.127,10.388,2.726,17.505,2.832 c1.389,0.021,1.533,2.048,0.157,2.24c-5.692,0.796-12.88,0.691-21.069-1.844l-0.003-0.002c-0.078,0.141-0.152,0.281-0.23,0.422 c-0.237,0.437-0.476,0.877-0.71,1.321c-0.194,0.361-0.388,0.723-0.577,1.088c-0.941,1.783-1.859,3.603-2.76,5.452 c-0.242,0.5-0.483,1-0.721,1.506c-0.272,0.569-0.54,1.141-0.807,1.717c-0.359,0.774,0.243,1.649,1.094,1.596 c4.035-0.249,10.146-0.971,16.263-2.989c1.333-0.44,2.112,1.437,0.861,2.075c-5.036,2.57-11.721,4.788-20.086,5.129 c-0.438,0.018-0.831,0.281-1,0.685c-0.443,1.053-0.879,2.116-1.305,3.189c-0.202,0.496-0.4,0.999-0.596,1.503 c-0.216,0.555-0.431,1.108-0.642,1.668c-0.01,0.025-0.023,0.054-0.032,0.084c-0.12,0.315-0.239,0.632-0.358,0.95 c-0.162,0.433-0.574,0.726-1.037,0.734c-0.2,0.004-0.383,0.007-0.548,0.009c-0.251,0.002-0.464,0.001-0.635,0 c-0.328-0.003-0.638-0.144-0.851-0.394c-0.435-0.512-0.856-1.039-1.262-1.579c-0.245-0.326-0.29-0.762-0.125-1.134 c0.251-0.565,0.503-1.129,0.757-1.689C447.21,402.744,447.551,401.983,447.901,401.229z"/></g></g><g><g><g><path style="fill:#b62985" d="M170.617,292.975c6.257,4.827,9.617,9.454,11.689,17.123c1.472,5.479,0.12,10.656,1.84,15.453 c0.716,1.997,3.688,1.631,3.845-0.478c0.21-2.772-0.255-5.762-0.856-8.356c-0.763-3.298-3.174-11.313,4.118-8.327 c7.093,2.911,3.101,14.278,2.27,22.408c-0.258,2.52,3.482,3.083,3.92,0.587c1.252-7.261-0.351-19.022,7.816-19.582 c9.482-0.65,1.054,17.445-0.724,21.404c-1.128,2.505-7.266,13.795-0.429,11.738c3.855-1.156,5.131-10.194,5.692-13.362 c0.559-3.175-0.676-10.288,1.815-12.519c4.176-3.754,6.317,2.095,6.661,5.437c0.775,7.555-8.944,15.601-8.88,23.138 c0.02,1.76,2.166,2.592,3.404,1.351c2.118-2.118,3.804-4.324,5.167-7.421c1.733-3.949,0.91-7.806,2.184-11.384 c3.474-9.704,8.147,3.442,4.591,9.842c-1.602,2.879-13.379,15.382-7.234,19.193c0.019,0.012,0.028,0.018,0.045,0.022 c0.12,0.077,0.246,0.145,0.38,0.211c0.037,0.024,0.08,0.038,0.115,0.054c0.018,0.012,0.035,0.016,0.052,0.021 c5.768,2.271,12.778-22.833,13.767-26.404c0.721-2.654-0.697-4.99-1.026-7.572c-0.119-0.904,0.417-1.76,1.265-2.098 c11.973-4.765,4.682,15.433,2.323,20.044c-2.026,3.95-4.947,8.859-5.336,13.316c-0.373,4.35,1.252,11.393,5.751,6.869 c2.499-2.52,5.543-11,6.827-14.493c1.613-4.384,1.434-8.533,2.207-13.05c0.621-3.618,3.467-10.966,7.561-6.293 c2.057,2.347,0.691,8.981,0.032,11.701c-2.006,8.245-13.762,17.588-11.181,26.671c0.36,1.24,1.801,1.87,2.908,1.19 c6.285-3.811,9.36-17.982,11.461-23.799c0.781-2.166,1.392-4.598,1.538-6.902c0.146-2.377-1.548-5.391-0.951-7.668 c1.821-6.988,7.44-2.968,9.241,1.366c3.778,9.066-1.371,16.356-7.829,22.097c-3.347,2.968-15.21,15.26-4.795,16.4 c10.057,1.1,7.175-11.096,10.214-16.516c2.125-3.789,6.26-4.759,8.58-8.424c2.008-3.167,1.59-7.169,5.15-9.42 c3.692-2.336,6.795-1.706,7.273,2.72c0.432,3.927-3.222,7.63-5.786,10.179c-3.094,3.071-7.813,4.925-10.092,8.74 c-1.499,2.515-2.667,9.145,1.416,10.149c4.055,0.986,12.942-11.145,14.967-13.942c5.18-7.145,6.038-11.459,5.967-19.423 c-0.01-0.809,0.483-1.529,1.223-1.85c5.824-2.51,7.984,4.766,6.69,9.842c-1.511,5.863-5.937,9.926-10.42,13.692 c-2.711,2.28-11.516,8.043-9.697,12.063c2.572,5.675,10.232,1.355,11.6-1.902c2.218-5.287,0.975-8.305,6.753-12.148 c3.664-2.425,8.288-5.697,12.819-6.199c5.936-0.659,8.495,3.072,3.389,7.475c-3.746,3.214-9.064,3.03-13.461,5.123 c-5.003,2.377-9.448,9.393-2.553,12.816c3.397,1.679,9.627,0.733,14.04-0.235c1.228-0.27,2.396,0.667,2.401,1.921 c0.004,1.175,0.018,2.579,0.07,3.831c0.012,0.307,0.03,0.605,0.044,0.889c0.068,1.289-1.097,2.283-2.365,2.045 c-3.446-0.635-6.607-1.674-9.907-2.659c-1.589-0.47-3.209-0.933-4.908-1.324c-0.034-0.008-0.067-0.017-0.093-0.027 c-4.105-0.959-5.714-1.011-6.877,0.825c-0.499,0.769-0.908,1.876-1.394,3.39c-0.976,3.051-4.222,18.722-9.929,11.947 c-3.859-4.582,3.923-11.026,4.167-15.276c0.015-0.258,0.018-0.497,0.015-0.727c-0.012-6.284-5.494-4.573-8.747-1.18 c-0.313,0.315-0.597,0.648-0.856,0.99c-3.488,4.604-3.727,10.507-3.685,15.989c0.04,3.695,1.132,10.736-4.342,11.69 c-7.855,1.366-4.159-10.08-2.309-13.601c2.094-4.004,11.865-13.699,4.033-13.785c-12.954-0.138-14.028,21.629-25.318,24.726 c-1.2,0.327-2.398-0.571-2.463-1.804c-0.21-4.039,4.42-6.987,6.878-9.839c1.678-1.95,9.773-10.521,9.454-12.59 c-0.615-3.998-7.746-2.918-10.645-1.535c-7.3,3.461-7.343,12.611-8.991,19.411c-2.044,8.436-11.433,11.649-10.075,1.066 c0.946-7.424,8.184-12.724,11.898-18.729c5.67-9.152-4.151-4.176-8.313-0.831c-3.917,3.157-6.636,8.117-8.434,12.819 c-2.726,7.139,0.954,17.968-8.302,21.39c-13.757,5.077,1.479-25.281,4.063-29.155c2.44-3.659,6.618-5.228,9.892-7.766 c3.505-2.716,5.694-7.266-0.602-7.379c-3.901-0.066-6.543,3.979-8.55,6.565c-4.792,6.162-7.549,16.599-14.513,20.686 c-10.902,6.39-12.138-4.824-5.374-11.053c5.182-4.785,11.1-8.564,16.732-12.565c1.754-1.243,8.314-5.576,4.026-6.861 c-1.965-0.586-7.028,2.997-8.64,3.875c-6.019,3.284-10.203,7.834-15.639,11.896c-3.545,2.646-20.579,8.903-16.018-0.372 c2.28-4.641,12.511-7.856,16.54-11.013c1.825-1.426,7.699-4.249,11.579-6.673c1.642-1.028,0.975-3.56-0.96-3.652 c-4.291-0.211-8.523,0.169-12.282,2.671c-5.492,3.661-4.412,9.306-11.712,10.883c-5.715,1.23-11.133-0.244-6.695-6.28 c2.914-3.962,9.247-6.504,13.48-8.768c2.782-1.485,10.551-2.736,12.575-4.921c5.2-5.608-6.747-1.771-9.227-1.012 c-4.043,1.245-29.866,11.314-28.14-0.669c0.857-5.982,15.115-4.175,23.028-4.226c2.001-0.01,2.74-2.652,1.03-3.675 c-8.037-4.826-21.154-1.033-27.693-6.673c-6.557-5.651,2.147-6.623,6.938-5.655c3.367,0.676,9.449,5.064,13.691,5.707 c1.736,0.271,2.923-1.746,1.86-3.15c-3.188-4.204-9.389-9.21-12.685-11.952c-4.56-3.792-18.02-5.187-18.505-12.178 c-0.483-6.984,7.999-1.58,12.669,2.029c1.034,0.798,1.874,1.512,2.397,1.978c1.972,1.777,5.645,6.598,9.163,9.92 c1.654,1.56,4.232-0.42,3.099-2.397c-2.596-4.549-5.537-9.006-8.857-13.126c-3.149-3.919-16.464-10.702-16.977-15.287 C149.592,282.964,167.544,290.597,170.617,292.975z"/></g></g><g><g><path style="fill:#da73b6" d="M183.944,240.793c7.036,5.516,13.047,7.911,22.033,8.047 c6.418,0.088,11.718-2.837,17.457-2.287c2.389,0.229,2.816,3.59,0.547,4.35c-2.981,1.003-6.389,1.326-9.402,1.39 c-3.829,0.082-13.29-0.328-7.984,6.836c5.168,6.966,16.52-0.578,25.204-3.755c2.692-0.985,4.351,2.959,1.735,4.135 c-7.613,3.396-20.957,4.916-19.295,14.027c1.93,10.579,19.423-3.705,23.269-6.758c2.432-1.934,13.102-11.811,12.752-3.741 c-0.193,4.55-9.749,8.467-13.066,9.965c-3.325,1.498-11.469,2.126-13.222,5.479c-2.952,5.625,4.058,6.344,7.818,5.789 c8.501-1.255,14.616-14.155,22.898-16.185c1.936-0.468,3.447,1.653,2.43,3.356c-1.732,2.913-3.681,5.376-6.697,7.734 c-3.847,3-8.306,3.173-11.875,5.567c-9.673,6.514,6.045,7.974,12.071,2.293c2.711-2.559,13.139-18.957,19.03-13.28 c0.018,0.017,0.027,0.025,0.036,0.043c0.118,0.11,0.227,0.23,0.337,0.358c0.036,0.034,0.064,0.077,0.092,0.111 c0.018,0.017,0.027,0.034,0.037,0.052c4.098,5.692-21.477,20.374-25.117,22.453c-2.709,1.53-5.666,0.626-8.589,0.985 c-1.024,0.122-1.814,0.947-1.948,1.971c-1.889,14.457,18.228,0.833,22.627-3.037c3.767-3.323,8.336-7.893,13.114-9.562 c4.666-1.621,12.842-1.802,9.135,4.393c-2.066,3.443-10.518,9.143-13.99,11.524c-4.357,2.991-8.957,3.95-13.695,6.057 c-3.794,1.689-11.059,6.858-4.794,10.044c3.146,1.602,10.04-1.745,12.839-3.225c8.482-4.497,15.452-19.991,26.131-19.692 c1.461,0.049,2.552,1.454,2.115,2.857c-2.428,7.954-17.11,15.274-22.904,19.199c-2.158,1.459-4.654,2.807-7.141,3.609 c-2.566,0.823-6.343-0.196-8.673,1.094c-7.156,3.944-1.181,8.985,4.073,9.753c10.994,1.616,17.553-6.061,22.049-14.742 c2.322-4.497,12.495-20.931,16.647-9.827c4.008,10.722-10.168,10.959-15.265,15.802c-3.562,3.386-3.475,8.191-6.846,11.755 c-2.913,3.084-7.417,3.741-8.894,8.272c-1.533,4.699,0.023,7.926,5.009,7.217c4.426-0.62,7.469-5.659,9.55-9.181 c2.506-4.248,3.224-9.94,6.772-13.502c2.34-2.344,9.285-5.472,11.523-1.275c2.211,4.172-8.615,17.297-11.118,20.297 c-6.392,7.671-10.883,9.814-19.635,11.956c-0.889,0.214-1.542,0.956-1.688,1.857c-1.129,7.085,7.45,7.427,12.657,4.593 c6.008-3.291,9.23-9.276,12.11-15.241c1.745-3.608,5.611-14.869,10.525-13.994c6.94,1.24,4.337,10.843,1.147,13.25 c-5.18,3.905-8.835,3.384-11.439,10.79c-1.638,4.694-3.938,10.675-3.225,15.784c0.932,6.692,5.736,8.459,9.141,1.633 c2.481-5.003,0.797-10.783,1.867-16.188c1.213-6.148,7.668-12.977,13.342-6.37c2.788,3.257,3.486,10.352,3.654,15.461 c0.047,1.422,1.398,2.441,2.776,2.097c1.29-0.324,2.833-0.7,4.221-0.991c0.34-0.073,0.672-0.137,0.987-0.199 c1.432-0.284,2.198-1.839,1.583-3.163c-1.656-3.602-3.676-6.778-5.676-10.122c-0.958-1.612-1.917-3.259-2.819-5.013 c-0.019-0.034-0.037-0.069-0.056-0.095c-2.195-4.234-2.701-5.984-1.011-7.771c0.704-0.761,1.804-1.518,3.329-2.473 c3.074-1.92,19.353-9.846,10.334-14.216c-6.099-2.955-10.998,7.374-15.59,8.826c-0.278,0.088-0.54,0.159-0.792,0.22 c-6.895,1.738-6.545-4.75-3.732-9.263c0.258-0.43,0.544-0.835,0.848-1.214c4.077-5.108,10.482-7.015,16.506-8.496 c4.063-0.986,12.088-1.751,11.609-8.019c-0.691-8.994-12.212-1.752-15.558,1.258c-3.807,3.412-11.715,16.828-13.992,8.264 c-3.761-14.166,19.808-21.409,20.059-34.652c0.024-1.407-1.294-2.471-2.665-2.197c-4.488,0.895-6.43,6.794-8.872,10.284 c-1.67,2.384-8.814,13.648-11.171,13.875c-4.555,0.44-5.358-7.681-4.649-11.245c1.762-8.969,11.783-11.566,18.78-15.267 c8.681-4.591,9.588-15.782-1.638-11.344c-7.878,3.106-11.672,12.52-17.222,18.265c-8.456,8.767-5.736-3.388-3.227-8.884 c2.37-5.175,7.051-9.539,11.707-12.82c7.069-4.978,19.969-3.96,21.142-15.063c1.734-16.5-27.31,8.666-30.838,12.579 c-3.332,3.695-3.888,8.714-5.759,13.011c-2.002,4.601-6.381,8.268-8.259,1.396c-1.159-4.259,2.54-8.283,4.817-11.205 c5.422-6.971,16.098-12.903,18.64-21.678c3.969-13.735-8.672-11.966-13.618-2.813c-3.803,7.015-6.297,14.558-9.116,21.848 c-0.875,2.27-3.797,10.671-6.401,6.327c-1.19-1.991,1.328-8.542,1.842-10.554c1.924-7.516,5.747-13.371,8.687-20.463 c1.913-4.624,4.028-25.047-4.871-17.46c-4.454,3.794-5.128,15.908-7.467,21.205c-1.055,2.399-2.513,9.626-4.092,14.556 c-0.67,2.087-3.632,2.062-4.272-0.035c-1.427-4.646-2.189-9.393-0.493-14.212c2.484-7.042,8.975-7.431,8.671-15.875 c-0.244-6.61-3.37-12.14-8.752-5.592c-3.532,4.299-4.555,11.952-5.858,17.224c-0.853,3.464-0.06,12.332-1.892,15.16 c-4.7,7.264-3.821-6.905-3.68-9.836c0.238-4.78,4.084-35.902-8.575-30.671c-6.321,2.607-0.366,17.738,1.782,26.429 c0.547,2.197-2.144,3.744-3.743,2.153c-7.531-7.469-7.027-22.909-15.033-28.507c-8.023-5.616-6.664,4.2-4.268,9.183 c1.679,3.504,8.186,8.95,10.073,13.423c0.781,1.829-1.1,3.692-2.936,2.918c-5.499-2.324-12.716-7.729-16.641-10.579 c-5.429-3.943-10.708-18.314-18.51-16.898c-7.793,1.416,0.496,9.211,5.755,13.327c1.163,0.911,2.18,1.633,2.836,2.077 c2.498,1.667,8.808,4.351,13.43,7.284c2.172,1.379,0.719,4.757-1.764,4.065c-5.712-1.579-11.419-3.562-16.862-6.055 c-5.175-2.361-16.323-15.072-21.493-14.357C167.108,220.527,180.481,238.086,183.944,240.793z"/></g></g><g><g><g><path style="fill:#ec3434" d="M227.229,306.77l-0.003,0.002c0.255,0.215,0.513,0.434,0.774,0.65 C227.742,307.204,227.485,306.985,227.229,306.77z"/><path style="fill:#ec3434" d="M283.889,375.934l-0.003,0.003c0.099,0.17,0.193,0.348,0.291,0.525 C284.079,376.285,283.987,376.11,283.889,375.934z"/><path style="fill:#ec3434" d="M297.903,406.371c-0.264-0.699-0.531-1.39-0.802-2.083c-0.244-0.63-0.492-1.258-0.744-1.878 c-0.644-1.621-1.306-3.225-1.98-4.809c-3.406-0.094-6.595-0.436-9.566-0.965c-3.006-0.534-2.321-5.026,0.714-4.696 c2.603,0.283,4.862,0.416,6.583,0.476c-0.65-1.432-1.305-2.85-1.974-4.252c-0.298-0.633-0.6-1.257-0.902-1.882 c-1.127-2.31-2.274-4.584-3.449-6.812c-0.236-0.457-0.478-0.908-0.721-1.359c-0.385-0.731-0.782-1.454-1.169-2.171 c-0.003-0.001-0.005-0.002-0.009-0.003c-3.091,0.957-6.069,1.636-8.915,2.092c-3.04,0.486-3.903-3.979-0.901-4.667 c3.042-0.697,5.552-1.435,7.262-1.984c-0.797-1.386-1.606-2.753-2.417-4.103c-0.331-0.552-0.665-1.101-1.003-1.647 c-0.464-0.754-0.93-1.505-1.398-2.251c-0.31-0.495-0.621-0.984-0.932-1.473c-0.295-0.46-0.59-0.919-0.885-1.373 c-0.273-0.423-0.544-0.844-0.822-1.259c-0.252-0.388-0.506-0.769-0.756-1.148c-0.365-0.552-0.738-1.099-1.103-1.645 c-0.001,0-0.001-0.001-0.002-0.001c-4.246,1.549-8.297,2.567-12.113,3.182c-3.017,0.486-3.885-3.982-0.906-4.667 c5.83-1.339,9.688-2.826,9.688-2.826s0.245,0.161,0.628,0.414c-0.372-0.526-0.743-1.056-1.117-1.577 c-0.392-0.543-0.782-1.083-1.172-1.617c-0.437-0.598-0.875-1.19-1.316-1.78c-0.111-0.151-0.227-0.303-0.337-0.454 c-0.35-0.465-0.701-0.931-1.055-1.393c-0.047-0.064-0.096-0.131-0.146-0.192c-0.212-0.283-0.425-0.56-0.644-0.838 c-0.908-1.186-1.823-2.352-2.74-3.501c-0.426-0.534-0.853-1.061-1.278-1.586c-0.407-0.501-0.816-0.996-1.224-1.491 c-0.308-0.372-0.619-0.748-0.931-1.118c-0.371-0.445-0.741-0.886-1.113-1.325c-0.5-0.593-1.008-1.181-1.51-1.762 c-0.038-0.044-0.076-0.089-0.117-0.131c-0.433-0.508-0.87-1.008-1.311-1.505c-0.149-0.169-0.299-0.338-0.448-0.507 c-0.336-0.383-0.674-0.76-1.011-1.137c-0.528-0.588-1.057-1.171-1.583-1.749c-0.277-0.302-0.555-0.604-0.833-0.907 c-0.127-0.139-0.254-0.277-0.385-0.414c-0.269-0.29-0.539-0.58-0.809-0.87c-0.096-0.105-0.192-0.206-0.289-0.307 c-0.401-0.429-0.803-0.851-1.204-1.274c-1.248-1.31-2.498-2.59-3.748-3.846c-0.775-0.132-1.522-0.259-2.296-0.391 c-4.225,2.073-10.841,4.452-18.78,4.317c-2.862-0.049-3.215-4.182-0.402-4.713c5.05-0.954,10.555-2.601,15.055-5.438 c-2.022-1.892-4.038-3.712-6.04-5.464c-0.324-0.289-0.655-0.572-0.981-0.855c-0.599-0.517-1.197-1.034-1.788-1.541 c-0.372-0.043-0.747-0.086-1.119-0.128c-4.136,2.171-11.193,4.982-19.804,4.833c-2.875-0.049-3.239-4.18-0.413-4.713 c4.975-0.94,10.392-2.552,14.855-5.31c0-0.001,0-0.001,0-0.002c-0.551-0.437-1.104-0.867-1.65-1.297 c-0.433-0.338-0.866-0.671-1.294-1.002c-0.66-0.507-1.314-1.008-1.967-1.5c-0.541-0.408-1.077-0.811-1.614-1.206 c-2.138-1.586-4.241-3.095-6.299-4.522l-0.003,0.003c-2.523,1.041-5.91,2.098-9.864,2.488 c-2.921,0.288-3.637-3.988-0.783-4.674c1.709-0.41,3.414-0.932,5.045-1.594c-0.327-0.214-0.651-0.426-0.973-0.633 c-0.287-0.182-0.571-0.366-0.853-0.546c-1.167-0.75-2.319-1.474-3.444-2.167c-0.785-0.482-1.558-0.953-2.32-1.411 c-0.267-0.16-0.529-0.314-0.793-0.471c-0.395-0.237-0.793-0.472-1.183-0.702c-2.183-1.28-4.258-2.448-6.205-3.504 c-0.227-0.128-0.455-0.249-0.684-0.371c-1.368-0.737-2.671-1.418-3.903-2.048c-0.394-0.201-0.784-0.396-1.162-0.588 c-2.279-1.137-4.285-2.083-5.974-2.843c-0.139-0.063-0.275-0.123-0.415-0.186c-0.404-0.179-0.791-0.349-1.162-0.511 c-0.126-0.052-0.246-0.104-0.36-0.154c-0.665-0.282-1.258-0.529-1.768-0.733c-0.121-0.046-0.239-0.094-0.348-0.137 c-0.839-0.33-1.417-0.536-1.722-0.628c1.674,0.379,3.332,0.78,4.975,1.208c-5.82-2.203-10.88-3.766-14.885-4.811 c-0.081,0.482-0.09,0.983-0.023,1.491c3.105,23.142,18.746,49.911,34.426,71.74c17.131-2.494,46.795-5.616,59.957,0.666 l-53.422,8.182c5.583,7.349,10.942,13.883,15.479,19.208c19.614,23.025,47.623,37.408,77.838,39.671 c1.925,0.144,3.539,0.217,4.803,0.246c-0.258-0.698-0.519-1.394-0.781-2.083 C297.932,406.438,297.916,406.403,297.903,406.371z"/><path style="opacity:.5;fill:#ec3434" d="M301.724,399.754c-0.864-1.894-1.736-3.771-2.619-5.635 c0.002,0.003-0.001,0.006-0.001,0.006C299.984,395.991,300.86,397.866,301.724,399.754z"/><path style="opacity:.5;fill:#ec3434" d="M228.262,298.496c0.383,0.292,0.763,0.586,1.146,0.884 c-0.379-0.3-0.761-0.598-1.145-0.889L228.262,298.496z"/><path style="opacity:.5;fill:#ec3434" d="M265.144,336.402c0.945,1.257,1.881,2.531,2.807,3.812 C267.026,338.927,266.09,337.654,265.144,336.402z"/><path style="opacity:.5;fill:#ec3434" d="M181.508,274.151c-0.965-0.305-1.938-0.593-2.915-0.879 C179.57,273.558,180.543,273.852,181.508,274.151z"/><path style="opacity:.5;fill:#ec3434" d="M199.135,280.9c1.926,0.88,3.826,1.8,5.701,2.759 c-1.872-0.961-3.774-1.884-5.7-2.764L199.135,280.9z"/><path style="opacity:.5;fill:#ec3434" d="M255.488,324.398c-1.599-1.856-3.222-3.674-4.875-5.45 C252.263,320.726,253.885,322.544,255.488,324.398z"/><path style="opacity:.5;fill:#ec3434" d="M257.396,326.642c0,0,0.003-0.002,0.001-0.006 c-0.633-0.753-1.267-1.501-1.909-2.238C256.129,325.141,256.763,325.888,257.396,326.642z"/><path style="opacity:.5;fill:#ec3434" d="M277.96,355.104c1.303,2.078,2.587,4.18,3.86,6.31 c-1.264-2.132-2.551-4.237-3.859-6.316C277.963,355.102,277.96,355.104,277.96,355.104z"/><path style="opacity:.5;fill:#ec3434" d="M274.329,349.461l0.001-0.006c-2.077-3.151-4.202-6.235-6.379-9.241 C270.124,343.228,272.249,346.313,274.329,349.461z"/><path style="opacity:.5;fill:#ec3434" d="M296.177,388.034c-0.325-0.664-0.652-1.322-0.982-1.977 c0.326,0.658,0.653,1.316,0.978,1.98L296.177,388.034z"/><path style="opacity:.5;fill:#ec3434" d="M286.656,369.814c-1.578-2.835-3.186-5.628-4.825-8.377 C283.467,364.189,285.075,366.982,286.656,369.814z"/><path style="fill:#ec3434" d="M174.567,272.17c0.667,0.172,1.331,0.347,1.99,0.529c0.679,0.189,1.358,0.378,2.037,0.573 c0.977,0.286,1.95,0.574,2.915,0.879c0.974,0.303,1.938,0.614,2.894,0.935c0.479,0.155,0.954,0.318,1.431,0.484 c2.385,0.823,4.729,1.697,7.037,2.627c0.997-1.846,0.957-4.341,0.505-6.764c-0.393-2.106,2.533-3.104,3.512-1.197 c2.08,4.051,2.334,8.196,2.247,10.658c1.926,0.88,3.828,1.804,5.7,2.764c0.627,0.315,1.25,0.638,1.868,0.969 c0.619,0.325,1.24,0.66,1.852,0.996c0.615,0.334,1.226,0.676,1.833,1.02c0.578,0.325,1.146,0.651,1.716,0.987 c0.636,0.37,1.271,0.745,1.9,1.126c-5.458-5.781-11.834-20.44-15.565-29.782c-12.324-1.272-24.402-0.071-35.542,4.373 c-1.74,0.694-2.946,2.231-3.23,4.005c4.008,1.046,9.071,2.61,14.897,4.815C174.565,272.169,174.566,272.17,174.567,272.17z"/><path style="fill:#ec3434" d="M217.409,290.882c0.108,0.07,0.22,0.138,0.328,0.209c0.4,0.259,0.801,0.517,1.198,0.779 c0.497,0.327,0.993,0.66,1.489,0.993c0.305,0.199,0.604,0.404,0.903,0.608c0.361,0.247,0.72,0.499,1.083,0.749 c0.312,0.215,0.624,0.43,0.929,0.651c0.019,0.012,0.035,0.026,0.054,0.038c0.044-2.412-0.246-4.865-0.697-7.169 c-0.441-2.255,2.765-3.182,3.595-1.039c1.733,4.471,2.06,8.724,1.972,11.79c0.383,0.292,0.766,0.589,1.145,0.889 c0.383,0.292,0.763,0.592,1.138,0.894c0.382,0.298,0.758,0.6,1.131,0.905c0.376,0.303,0.751,0.611,1.123,0.916 c0.376,0.302,0.747,0.613,1.115,0.927c0.375,0.308,0.749,0.622,1.114,0.938c0.74,0.624,1.472,1.259,2.196,1.904 c0.931-2.923,1.274-6.13,1.307-9.149c0.025-2.285,3.358-2.52,3.733-0.266c0.912,5.48,0.037,10.288-0.809,13.264 c0.299,0.276,0.592,0.556,0.887,0.841c0.088,0.085,0.176,0.17,0.264,0.255c0.268,0.247,0.532,0.502,0.793,0.76 c0.145,0.142,0.295,0.284,0.44,0.426c0.587,0.571,1.167,1.146,1.747,1.727c0.34,0.339,0.683,0.681,1.019,1.028 c0.334,0.344,0.673,0.688,1.009,1.035c0.34,0.345,0.676,0.691,1.007,1.047c0.669,0.696,1.333,1.401,1.99,2.116 c1.653,1.775,3.276,3.594,4.875,5.45c0.642,0.737,1.276,1.484,1.909,2.238c2.018-5.073,2.886-10.831,2.901-17.097 c0.005-2.265,3.29-2.562,3.723-0.338c2.049,10.524,0.074,19.559-1.296,24.033c0.274,0.346,0.547,0.698,0.813,1.055 c0.139,0.176,0.278,0.359,0.416,0.541c0.221,0.281,0.433,0.564,0.648,0.851c0.18,0.239,0.36,0.479,0.543,0.721 c0.946,1.252,1.882,2.525,2.807,3.812c2.177,3.006,4.302,6.09,6.379,9.241c1.019-3.501,2.503-9.491,3.128-16.382 c0.212-2.343,3.662-2.269,3.748,0.082c0.233,6.365-0.545,13.772-3.246,21.943c1.309,2.079,2.595,4.184,3.859,6.316 c0.001,0.009,0.006,0.016,0.011,0.023c1.639,2.75,3.247,5.542,4.825,8.377c0.468,0.838,0.931,1.675,1.392,2.518 c1.741-8.348,2.385-44.373,2.598-63.921c-21.222-21.89-51.664-41.468-81.742-47.789l6.47,28.979 c0.487,0.299,0.972,0.604,1.454,0.911C217.025,290.632,217.22,290.758,217.409,290.882z"/><path style="fill:#ec3434" d="M288.135,372.5c0.345,0.634,0.688,1.265,1.029,1.902c0.345,0.634,0.687,1.271,1.027,1.913 c0.338,0.639,0.679,1.281,1.017,1.926c0.335,0.641,0.672,1.286,1.009,1.937c0.338,0.645,0.668,1.295,0.999,1.944 c0.667,1.301,1.327,2.612,1.979,3.934c0.33,0.655,0.656,1.314,0.982,1.977c4.047-6.296,6.617-13.58,8.242-20.003 c0.592-2.341,4.121-1.57,3.664,0.801c-1.968,10.206-6.696,20.636-8.978,25.286c0.883,1.864,1.756,3.741,2.619,5.635 c0.437,0.943,0.864,1.894,1.291,2.844c0.43,0.948,0.856,1.904,1.279,2.863c2.395-3.302,4.392-6.978,6.062-10.791 c10.351-23.599,7.085-50.627-7.353-71.633C301.701,351.226,289.782,370.029,288.135,372.5z"/></g></g><path style="fill:#ec3434" d="M288.135,372.5c0.345,0.634,0.688,1.265,1.029,1.902c0.345,0.634,0.687,1.271,1.027,1.913 c0.338,0.639,0.679,1.281,1.017,1.926c0.335,0.641,0.672,1.286,1.009,1.937c0.338,0.645,0.668,1.295,0.999,1.944 c0.667,1.301,1.327,2.612,1.979,3.934c0.33,0.655,0.656,1.314,0.982,1.977c3.996-6.217,6.64-13.196,8.372-19.317 c0.701-2.477,4.435-1.569,3.892,0.947c-2.125,9.842-7.054,19.804-9.336,24.454c0.883,1.864,1.756,3.741,2.619,5.635 c0.437,0.943,0.864,1.894,1.291,2.844c0.43,0.948,0.856,1.904,1.279,2.863c2.395-3.302,4.392-6.978,6.062-10.791 c10.351-23.599,7.085-50.627-7.353-71.633C301.701,351.226,289.782,370.029,288.135,372.5z"/><path style="fill:#ff5e5c" d="M301.724,399.754c-0.865-1.888-1.74-3.763-2.62-5.629c0,0,0.003-0.002,0.001-0.006 c2.975-6.064,10.108-21.952,9.862-34.359c-0.034-1.711-2.527-1.872-2.801-0.182c-1.243,7.651-3.997,19.137-9.988,28.457 l-0.003,0.002c-0.326-0.664-0.652-1.322-0.978-1.98c-0.652-1.322-1.312-2.633-1.979-3.934c-0.331-0.65-0.661-1.299-0.999-1.944 c-0.337-0.651-0.674-1.296-1.009-1.937c-0.337-0.645-0.678-1.287-1.017-1.926c-0.341-0.642-0.682-1.279-1.027-1.913 c-0.342-0.637-0.684-1.268-1.029-1.902c-0.027-0.058-0.058-0.107-0.087-0.168c-0.461-0.843-0.924-1.68-1.392-2.518 c-1.581-2.833-3.19-5.625-4.825-8.377c-0.005-0.007-0.01-0.013-0.011-0.023c-1.274-2.13-2.558-4.232-3.86-6.31 c0,0,0.004-0.003,0.001-0.006c3.726-11.273,3.793-21.091,2.593-28.726c-0.27-1.719-2.806-1.537-2.801,0.203 c0.028,9.513-2.093,18.314-3.422,22.88l-0.001,0.006c-2.08-3.149-4.206-6.233-6.378-9.247 c-0.926-1.281-1.863-2.555-2.807-3.812c-0.183-0.243-0.363-0.482-0.543-0.721c-0.215-0.286-0.427-0.57-0.648-0.851 c-0.139-0.182-0.277-0.365-0.416-0.541c-0.122-0.164-0.246-0.327-0.371-0.489c-0.272-0.353-0.366-0.808-0.243-1.236 c1.544-5.341,3.544-15.921,0.014-27.77c-0.476-1.597-2.844-1.175-2.754,0.489c0.429,7.927-0.321,15.151-2.787,21.354 c0.002,0.003-0.001,0.006-0.001,0.006c-0.633-0.753-1.267-1.501-1.908-2.244c-1.602-1.854-3.225-3.672-4.875-5.45 c-0.657-0.715-1.321-1.42-1.99-2.116c-0.332-0.355-0.668-0.702-1.007-1.047c-0.336-0.347-0.675-0.691-1.009-1.035 c-0.336-0.347-0.679-0.689-1.019-1.028c-0.579-0.581-1.16-1.157-1.747-1.727c-0.145-0.142-0.295-0.284-0.44-0.426 c-0.261-0.258-0.525-0.513-0.793-0.76c-0.088-0.085-0.176-0.17-0.264-0.255c-0.092-0.089-0.185-0.178-0.277-0.266 c-0.369-0.353-0.524-0.868-0.398-1.362c0.988-3.861,1.805-10.136-0.526-16.918c-0.543-1.579-2.867-1.119-2.745,0.546 c0.245,3.348,0.225,7.318-0.573,11.042c-0.225,1.05-1.482,1.483-2.298,0.786c-0.165-0.141-0.331-0.282-0.497-0.422 c-0.365-0.316-0.739-0.63-1.114-0.938c-0.368-0.313-0.739-0.624-1.115-0.927c-0.373-0.305-0.747-0.613-1.123-0.916 c-0.372-0.305-0.748-0.607-1.131-0.905c-0.376-0.303-0.755-0.603-1.138-0.894c-0.382-0.298-0.762-0.592-1.146-0.884 l0.001-0.006c0.114-4.003-0.478-10.027-3.981-15.919c-0.842-1.416-3.014-0.469-2.563,1.116 c0.942,3.312,1.744,7.32,1.673,11.221c-0.019-0.012-0.035-0.026-0.054-0.038c-0.305-0.22-0.617-0.435-0.929-0.651 c-0.363-0.25-0.723-0.502-1.083-0.749c-0.299-0.204-0.598-0.408-0.903-0.608c-0.496-0.333-0.992-0.666-1.489-0.993 c-0.397-0.261-0.798-0.52-1.198-0.779c-0.108-0.07-0.22-0.138-0.328-0.209c-0.189-0.125-0.384-0.25-0.579-0.37 c-0.482-0.307-0.968-0.612-1.454-0.911c-0.452-0.288-0.907-0.564-1.369-0.844c-0.628-0.381-1.264-0.756-1.9-1.126 c-0.57-0.336-1.139-0.662-1.716-0.987c-0.607-0.345-1.218-0.686-1.833-1.02c-0.612-0.336-1.233-0.671-1.852-0.996 c-0.618-0.331-1.241-0.654-1.868-0.969c-1.875-0.958-3.775-1.879-5.701-2.759l0.001-0.006c0.106-3.014-0.298-8.553-3.94-13.351 c-0.944-1.244-2.898-0.219-2.456,1.279c0.756,2.557,1.28,5.54,0.684,7.924c-0.203,0.81-1.094,1.231-1.872,0.927 c-1.881-0.736-3.786-1.436-5.718-2.103c-0.477-0.166-0.952-0.33-1.431-0.484c-0.956-0.321-1.92-0.632-2.894-0.935 c-0.966-0.299-1.938-0.593-2.915-0.879c-0.678-0.195-1.358-0.384-2.037-0.573c-0.659-0.183-1.323-0.357-1.99-0.529 c-0.006-0.001-0.008-0.004-0.014-0.005c-1.642-0.428-3.301-0.829-4.975-1.208c0.304,0.092,0.883,0.298,1.722,0.628 c0.109,0.044,0.227,0.092,0.348,0.137c0.51,0.204,1.103,0.451,1.768,0.733c0.114,0.051,0.234,0.102,0.36,0.154 c0.371,0.162,0.758,0.332,1.162,0.511c0.139,0.063,0.276,0.123,0.415,0.186c1.689,0.76,3.695,1.705,5.974,2.843 c0.378,0.193,0.767,0.387,1.162,0.588c1.233,0.629,2.535,1.311,3.903,2.048c0.228,0.122,0.456,0.244,0.684,0.371 c1.947,1.056,4.022,2.224,6.205,3.504c0.39,0.23,0.788,0.465,1.183,0.702c0.264,0.157,0.526,0.311,0.793,0.471 c0.762,0.458,1.535,0.929,2.32,1.411c1.125,0.693,2.278,1.417,3.444,2.167c0.282,0.181,0.566,0.365,0.853,0.546 c0.322,0.208,0.647,0.419,0.973,0.633c-4.615,1.873-9.833,2.625-14.013,2.901c-1.629,0.107-1.797,2.431-0.203,2.785 c8.21,1.82,15.362-0.067,19.818-1.906l0.003-0.003c2.059,1.427,4.161,2.936,6.299,4.522c0.537,0.396,1.073,0.798,1.614,1.206 c0.653,0.492,1.308,0.992,1.967,1.5c0.428,0.331,0.861,0.664,1.294,1.002c0.005,0.004,0.011,0.009,0.016,0.013 c-0.099,1.165-0.098,1.162-0.197,2.328c-6.501,3.41-14.477,4.741-20.212,5.253c-1.601,0.143-1.749,2.422-0.181,2.781 c12.554,2.87,23.032-1.394,28.173-4.2l0.003-0.002c0.255,0.215,0.513,0.434,0.771,0.652c0.512,0.44,1.029,0.886,1.546,1.333 c0.325,0.283,0.656,0.566,0.981,0.855c1.54,1.348,3.088,2.735,4.64,4.165c0.707,0.651,0.572,1.819-0.274,2.277 c-6.566,3.555-14.736,4.926-20.58,5.446c-1.598,0.142-1.749,2.422-0.185,2.779c10.804,2.47,20.068-0.344,25.719-2.965 c1.299,0.24,2.564,0.475,3.864,0.715c1.01,1.022,2.019,2.061,3.027,3.119c0.402,0.423,0.804,0.845,1.204,1.274 c0.091,0.095,0.182,0.19,0.272,0.289c0.281,0.302,0.562,0.604,0.842,0.906c0.125,0.131,0.246,0.263,0.368,0.396 c0.278,0.302,0.555,0.604,0.833,0.907c0.526,0.579,1.055,1.161,1.583,1.749c0.337,0.377,0.675,0.754,1.011,1.137 c0.149,0.169,0.299,0.338,0.448,0.507c0.441,0.497,0.878,0.997,1.311,1.505c0.041,0.042,0.079,0.087,0.117,0.131 c0.502,0.581,1.009,1.169,1.51,1.762c0.372,0.439,0.741,0.88,1.113,1.325c0.312,0.37,0.623,0.746,0.931,1.118 c0.408,0.495,0.817,0.99,1.224,1.491c0.425,0.524,0.852,1.052,1.278,1.586c0.917,1.149,1.831,2.315,2.74,3.501 c0.219,0.278,0.432,0.555,0.644,0.838c0.05,0.061,0.099,0.129,0.146,0.192c0.354,0.463,0.704,0.928,1.055,1.393 c0.111,0.151,0.227,0.303,0.337,0.454c0.441,0.59,0.879,1.182,1.316,1.78c0.39,0.534,0.78,1.074,1.172,1.617 c0.375,0.521,0.745,1.051,1.117,1.577c-0.383-0.253-0.628-0.414-0.628-0.414s-12.212,4.704-26.015,4.918 c-1.741,0.027-1.922,2.562-0.197,2.802c7.619,1.059,17.376,0.826,28.513-3.042c0.612,0.202,1.031,0.34,1.643,0.542 c0.165,0.245,0.329,0.49,0.492,0.737c0.251,0.378,0.504,0.76,0.756,1.148c0.278,0.415,0.549,0.836,0.822,1.259 c0.296,0.454,0.591,0.914,0.885,1.373c0.311,0.489,0.622,0.978,0.932,1.473c0.468,0.746,0.934,1.497,1.398,2.251 c0.338,0.547,0.672,1.096,1.003,1.647c0.51,0.849,1.02,1.705,1.526,2.568c0.46,0.786,0.061,1.801-0.812,2.061 c-4.743,1.408-12.978,3.406-21.869,3.538c-1.736,0.026-1.915,2.558-0.196,2.799c7.112,0.994,16.092,0.863,26.323-2.304 l0.003-0.003c0.098,0.176,0.189,0.351,0.287,0.527c0.296,0.546,0.595,1.096,0.887,1.65c0.242,0.452,0.485,0.903,0.721,1.359 c1.175,2.228,2.322,4.502,3.449,6.812c0.302,0.625,0.604,1.249,0.902,1.882c0.339,0.711,0.675,1.426,1.008,2.145 c0.448,0.967-0.303,2.06-1.367,1.994c-5.041-0.311-12.676-1.213-20.318-3.734c-1.666-0.55-2.638,1.795-1.076,2.593 c6.291,3.211,14.643,5.982,25.095,6.408c0.547,0.022,1.038,0.351,1.25,0.855c0.553,1.315,1.098,2.644,1.631,3.985 c0.252,0.62,0.5,1.248,0.744,1.878c0.27,0.694,0.538,1.384,0.802,2.083c0.013,0.032,0.028,0.067,0.04,0.104 c0.15,0.394,0.299,0.79,0.448,1.187c0.203,0.542,0.717,0.906,1.295,0.917c0.25,0.004,0.478,0.008,0.685,0.012 c0.314,0.002,0.579,0.001,0.793-0.001c0.41-0.003,0.797-0.18,1.063-0.493c0.544-0.639,1.07-1.298,1.577-1.973 c0.306-0.407,0.362-0.952,0.156-1.417c-0.313-0.706-0.628-1.41-0.946-2.109C302.588,401.648,302.161,400.697,301.724,399.754z"/></g></g></g><g><rect x="421.841" y="194.923" style="fill:#ec3434" width="153.574" height="99.966"/><polygon style="fill:#c7160c" points="421.841 294.889 575.416 294.889 498.629 244.906"/><polygon style="fill:#ff5e5c" points="575.416 194.924 421.842 194.924 498.629 273.638"/></g><g><g><path style="fill:#5d3bc5" d="M459.863,146.869V399.77c0,7.346-5.958,13.313-13.314,13.313H303.451 c-7.356,0-13.314-5.967-13.314-13.313V146.869c0-7.356,5.958-13.323,13.314-13.323H446.55 C453.906,133.546,459.863,139.514,459.863,146.869z"/><linearGradient id="SVGID_00000144335760506081567910000004864414704805690545_" x1="301.376" x2="448.624" y1="265.497" y2="265.497" gradientUnits="userSpaceOnUse"><stop offset=".002" style="stop-color:#d6e1f4"/><stop offset=".604" style="stop-color:#e7edf8"/><stop offset="1" style="stop-color:#f4f7fc"/></linearGradient><rect x="301.376" y="146.571" style="fill:url(#SVGID_00000144335760506081567910000004864414704805690545_)" width="147.249" height="237.852"/><linearGradient id="SVGID_00000170275538146491241780000002845119655396097953_" x1="375" x2="375" y1="390.798" y2="162.769" gradientUnits="userSpaceOnUse"><stop offset=".002" style="stop-color:#d6e1f4"/><stop offset=".604" style="stop-color:#e7edf8"/><stop offset="1" style="stop-color:#f4f7fc"/></linearGradient><rect x="301.376" y="146.571" style="fill:url(#SVGID_00000170275538146491241780000002845119655396097953_)" width="147.249" height="237.852"/><g><g><circle style="fill:#ff5e5c" cx="330.649" cy="362.654" r="12.465"/><g><g><path style="fill:#fff" d="M339.604,364.006v0.741h-4.014v-0.052c0-0.868-0.619-1.613-1.472-1.773 c-3.02-0.567-3.943-0.549-6.958,0.056c-0.844,0.169-1.452,0.909-1.452,1.769l0,0h-4.014v-0.741 c0-1.411,0.931-2.653,2.285-3.05c5.53-1.723,8.546-1.824,13.341,0C338.773,361.648,339.604,362.595,339.604,364.006z"/><path style="fill:#fff" d="M321.541,365.682h4.369c0.135,0,0.244-0.109,0.244-0.244v-0.542 c0-0.135-0.109-0.244-0.244-0.244h-4.369c-0.135,0-0.244,0.109-0.244,0.244v0.542 C321.298,365.573,321.407,365.682,321.541,365.682z"/></g><path style="fill:#fff" d="M339.758,365.682h-4.369c-0.135,0-0.244-0.109-0.244-0.244v-0.542 c0-0.135,0.109-0.244,0.244-0.244h4.369c0.134,0,0.244,0.109,0.244,0.244v0.542 C340.001,365.573,339.892,365.682,339.758,365.682z"/></g></g><g><circle style="fill:#775dd4" cx="375" cy="362.067" r="14.503"/><g><g><path style="fill:#fff" d="M368.421,355.953l0.524-0.524l2.838,2.838l-0.036,0.036 c-0.614,0.614-0.703,1.578-0.213,2.294c1.734,2.537,2.4,3.177,4.959,4.881c0.716,0.477,1.669,0.384,2.277-0.224l0,0 l2.838,2.838l-0.524,0.524c-0.997,0.997-2.534,1.218-3.772,0.541c-5.128-2.693-7.332-4.753-9.433-9.433 C367.341,358.207,367.423,356.95,368.421,355.953z"/><path style="fill:#fff" d="M382.378,367.539l-3.089-3.089c-0.095-0.095-0.249-0.095-0.345,0l-0.384,0.384 c-0.095,0.095-0.095,0.249,0,0.345l3.089,3.089c0.095,0.095,0.249,0.095,0.344,0l0.384-0.384 C382.474,367.789,382.474,367.635,382.378,367.539z"/></g><path style="fill:#fff" d="M369.498,354.659l3.089,3.089c0.095,0.095,0.095,0.25,0,0.345l-0.384,0.384 c-0.095,0.095-0.249,0.095-0.344,0l-3.089-3.089c-0.095-0.095-0.095-0.249,0-0.345l0.384-0.384 C369.248,354.564,369.402,354.564,369.498,354.659z"/></g></g><g><circle style="fill:#b62985" cx="419.351" cy="362.654" r="12.465"/><g><linearGradient id="SVGID_00000080208830132655461440000004660037978692755873_" x1="419.351" x2="419.351" y1="348.501" y2="372.34" gradientUnits="userSpaceOnUse"><stop offset=".002" style="stop-color:#d6e1f4"/><stop offset=".604" style="stop-color:#e7edf8"/><stop offset="1" style="stop-color:#f4f7fc"/></linearGradient><rect x="412.777" y="358.375" style="fill:url(#SVGID_00000080208830132655461440000004660037978692755873_)" width="13.148" height="8.558"/><linearGradient id="SVGID_00000075883412148623004390000002753075203401929385_" x1="419.351" x2="419.351" y1="362.745" y2="345.352" gradientUnits="userSpaceOnUse"><stop offset=".002" style="stop-color:#d6e1f4"/><stop offset=".604" style="stop-color:#e7edf8"/><stop offset="1" style="stop-color:#f4f7fc"/></linearGradient><polygon style="fill:url(#SVGID_00000075883412148623004390000002753075203401929385_)" points="412.777 366.933 425.924 366.933 419.351 362.654"/><polygon style="fill:#fff" points="425.924 358.375 412.777 358.375 419.351 366.359"/></g></g></g><g><linearGradient id="SVGID_00000032641390174554033220000015854876593638143422_" x1="375" x2="375" y1="147.915" y2="-156.92" gradientUnits="userSpaceOnUse"><stop offset=".002" style="stop-color:#d6e1f4"/><stop offset=".604" style="stop-color:#e7edf8"/><stop offset="1" style="stop-color:#f4f7fc"/></linearGradient><path style="fill:url(#SVGID_00000032641390174554033220000015854876593638143422_)" d="M415.631,219.918 c0,10.764-4.185,20.549-11.022,27.805c-1.451,1.549-3.036,2.983-4.719,4.291c-6.873,5.351-15.519,8.53-24.894,8.53 c-9.393,0-18.047-3.187-24.929-8.556c-0.018-0.009-0.036-0.018-0.053-0.036c-9.518-7.434-15.643-19.018-15.643-32.034 c0-22.446,18.19-40.635,40.626-40.635C397.432,179.283,415.631,197.473,415.631,219.918z"/><linearGradient id="SVGID_00000176732471987395224630000010576463647949995652_" x1="350.066" x2="404.608" y1="224.051" y2="224.051" gradientUnits="userSpaceOnUse"><stop offset=".002" style="stop-color:#d6e1f4"/><stop offset=".604" style="stop-color:#e7edf8"/><stop offset="1" style="stop-color:#f4f7fc"/></linearGradient><path style="fill:url(#SVGID_00000176732471987395224630000010576463647949995652_)" d="M404.608,247.723 c-1.451,1.549-3.036,2.983-4.719,4.291c-6.873,5.351-15.519,8.53-24.894,8.53c-9.393,0-18.047-3.187-24.929-8.556 c0.365-1.451,0.953-2.822,1.745-4.069c1.264-2.012,3.054-3.713,5.217-4.879c2.074-1.131,4.372-1.781,6.731-1.896 c1.825-0.098,3.846-0.214,5.173-0.329l0.169-0.018c1.166-0.143,2.057-1.131,2.074-2.306c0.027-0.801,0.071-1.585,0.134-2.351 c0.036-0.864,0.089-1.709,0.178-2.555l0.062-0.739c-0.507-0.24-1.229-0.694-2.021-1.255c-3.828-2.671-7.025-6.135-9.518-10.088 c-0.08-0.142-0.178-0.285-0.258-0.418c-2.226-0.819-4.336-2.19-5.066-5.369c-0.694-3.027,0.134-7.043,2.662-7.256 c0.356-0.036,0.739,0.018,1.122,0.125c0-0.169,0.009-0.329,0.009-0.463c0.383-7.417,2.92-12.812,8.912-17.468 c5.039-3.917,12.349-4.024,17.842-0.846c6.019,3.499,8.004,10.978,8.342,17.62c0.018,0.436,0.036,0.89,0.044,1.362 c0.588-0.249,1.166-0.374,1.692-0.329c2.529,0.214,3.348,4.229,2.653,7.256c-0.819,3.606-3.41,4.879-5.939,5.663 c-0.721,1.977-4.523,6.25-5.538,7.292c-1.015,1.193-2.172,2.235-3.446,3.08c-0.605,1.131-0.855,2.555-0.784,4.283 c0.018,0.463,0.062,0.953,0.151,1.469c0,0,0,0,0,0.018c0.356,1.629,0.962,2.609,2.057,3.259 c0.57,0.356,1.309,0.614,2.217,0.819l1.994,0.24c1.184,0.125,2.751,0.267,4.256,0.418c3.303,0.303,6.464,1.434,9.197,3.303 C403.05,246.192,403.887,246.913,404.608,247.723z"/></g><linearGradient id="SVGID_00000097468943703871330400000015098044436124887456_" x1="365.819" x2="384.181" y1="397.338" y2="397.338" gradientUnits="userSpaceOnUse"><stop offset=".002" style="stop-color:#d6e1f4"/><stop offset=".604" style="stop-color:#e7edf8"/><stop offset="1" style="stop-color:#f4f7fc"/></linearGradient><path style="fill:url(#SVGID_00000097468943703871330400000015098044436124887456_)" d="M384.181,397.338 c0,5.071-4.11,9.181-9.181,9.181s-9.181-4.111-9.181-9.181c0-5.07,4.111-9.181,9.181-9.181S384.181,392.268,384.181,397.338z"/></g><g><linearGradient id="SVGID_00000060738182060218478060000007567992853785190828_" x1="375.878" x2="375.878" y1="232.807" y2="179.822" gradientUnits="userSpaceOnUse"><stop offset=".002" style="stop-color:#d6e1f4"/><stop offset=".604" style="stop-color:#e7edf8"/><stop offset="1" style="stop-color:#f4f7fc"/></linearGradient><path style="fill:url(#SVGID_00000060738182060218478060000007567992853785190828_)" d="M320.395,289.866h110.966 c3.9,0,7.062-3.162,7.062-7.062l0,0c0-3.9-3.162-7.062-7.062-7.062H320.395c-3.9,0-7.062,3.162-7.062,7.062v0 C313.333,286.704,316.495,289.866,320.395,289.866z"/></g></g><path style="fill:#e6e6e6" d="M312.674,307.738v97.651c0,2.777-0.685,5.395-1.914,7.693h-7.309 c-7.356,0-13.314-5.967-13.314-13.313V291.291h6.08c1.801,0,3.537,0.291,5.16,0.826 C307.935,294.284,312.674,300.458,312.674,307.738z"/><g><path style="fill:#9b86e1" d="M289.914,420.476H210c-1.957,0-3.543-1.587-3.543-3.544V293.46c0-1.957,1.586-3.543,3.543-3.543 h79.914c9.087,0,16.454,7.367,16.454,16.454v97.651C306.368,413.109,299.002,420.476,289.914,420.476z"/><path style="fill:#6341cc" d="M296.912,333.048l-1.836-1.853c-0.455-0.46-1.197-0.463-1.656-0.008l-0.525,0.52l-2.187-2.208 c-4.773-4.817-10.816-5.24-18.118-2.687c-22.547,9.995-32.5,20.545-45.557,45.139c-3.283,5.935-2.257,13.328,2.516,18.145 l2.187,2.208l-0.523,0.518c-0.46,0.455-0.463,1.197-0.008,1.656l1.836,1.852c0.455,0.46,1.197,0.463,1.656,0.008l14.919-14.782 c0.46-0.455,0.463-1.197,0.008-1.656l-1.836-1.853c-0.455-0.46-1.197-0.463-1.656-0.008l-0.674,0.668 c-2.626-2.943-2.947-7.311-0.724-10.616c8.25-12.264,11.341-15.452,23.573-23.733c3.398-2.3,7.93-1.898,10.873,0.935 l-0.681,0.674c-0.46,0.455-0.463,1.197-0.008,1.656l1.836,1.853c0.455,0.46,1.197,0.463,1.657,0.008l14.919-14.782 C297.364,334.249,297.367,333.508,296.912,333.048z"/><g><path style="fill:#321499" d="M210.297,411.775h-7.667c-1.064,0-1.926-0.862-1.926-1.926l0,0c0-1.064,0.862-1.927,1.926-1.927 h7.667c1.064,0,1.926,0.863,1.926,1.927l0,0C212.223,410.912,211.361,411.775,210.297,411.775z"/><path style="fill:#321499" d="M210.297,398.181h-7.667c-1.064,0-1.926-0.862-1.926-1.926l0,0c0-1.064,0.862-1.926,1.926-1.926 h7.667c1.064,0,1.926,0.862,1.926,1.926l0,0C212.223,397.318,211.361,398.181,210.297,398.181z"/><path style="fill:#321499" d="M210.297,384.587h-7.667c-1.064,0-1.926-0.862-1.926-1.926l0,0c0-1.064,0.862-1.927,1.926-1.927 h7.667c1.064,0,1.926,0.863,1.926,1.927l0,0C212.223,383.725,211.361,384.587,210.297,384.587z"/><path style="fill:#321499" d="M210.297,370.993h-7.667c-1.064,0-1.926-0.862-1.926-1.926l0,0c0-1.064,0.862-1.926,1.926-1.926 h7.667c1.064,0,1.926,0.862,1.926,1.926l0,0C212.223,370.131,211.361,370.993,210.297,370.993z"/><path style="fill:#321499" d="M210.297,357.4h-7.667c-1.064,0-1.926-0.862-1.926-1.926l0,0c0-1.064,0.862-1.927,1.926-1.927 h7.667c1.064,0,1.926,0.863,1.926,1.927l0,0C212.223,356.537,211.361,357.4,210.297,357.4z"/><path style="fill:#321499" d="M210.297,343.806h-7.667c-1.064,0-1.926-0.862-1.926-1.926l0,0c0-1.064,0.862-1.926,1.926-1.926 h7.667c1.064,0,1.926,0.862,1.926,1.926l0,0C212.223,342.943,211.361,343.806,210.297,343.806z"/><path style="fill:#321499" d="M210.297,330.212h-7.667c-1.064,0-1.926-0.862-1.926-1.926l0,0c0-1.064,0.862-1.926,1.926-1.926 h7.667c1.064,0,1.926,0.862,1.926,1.926l0,0C212.223,329.35,211.361,330.212,210.297,330.212z"/><path style="fill:#321499" d="M210.297,316.618h-7.667c-1.064,0-1.926-0.862-1.926-1.926l0,0c0-1.064,0.862-1.926,1.926-1.926 h7.667c1.064,0,1.926,0.862,1.926,1.926l0,0C212.223,315.756,211.361,316.618,210.297,316.618z"/><path style="fill:#321499" d="M210.297,303.025h-7.667c-1.064,0-1.926-0.862-1.926-1.926l0,0c0-1.064,0.862-1.926,1.926-1.926 h7.667c1.064,0,1.926,0.862,1.926,1.926l0,0C212.223,302.162,211.361,303.025,210.297,303.025z"/></g></g><g><g><path style="fill:#fab6b0" d="M291.282,216.891c-0.81,1.727-3.606,7.016-6.446,7.942l-8.93,21.083 c-1.362,3.214-5.76,3.864-7.826,1.042c-0.071-0.089-0.142-0.196-0.205-0.294l-2.217-4.656l-4.185-8.814l-1.06-2.226 l-1.514-3.187l0.632-2.956l1.522-7.141l0.588,0.223c0.472,0.178,0.926,0.392,1.362,0.623c1.932,1.051,3.544,2.627,4.55,4.594 c0.071,0.125,0.125,0.24,0.187,0.365l0.312,0.944l1.701,5.102l2.279,6.865l0.08,0.231l1.033-1.54l8.218-12.18 c-0.543-1.095-1.024-3.357-0.16-6.918l0.196-0.81c0.08-0.32,0.472-0.454,0.73-0.249c0.338,0.285,0.57,0.917,0.374,2.769 l2.92-6.295c0.142-0.303,0.383-0.552,0.685-0.668c0.338-0.116,0.668-0.045,0.516,0.89l-1.914,5.796l3.178-5.734 c0.169-0.312,0.463-0.561,0.81-0.641c0.383-0.089,0.784,0.036,0.659,0.962l-2.974,6.33l3.339-4.603 c0.178-0.258,0.472-0.419,0.784-0.41c0.338,0.018,0.641,0.232,0.294,1.122l-2.609,4.799c0.276-0.436,1.478-2.297,2.395-2.947 C290.979,216.019,291.487,216.455,291.282,216.891z"/></g><path style="fill:#9b86e1" d="M272.033,236.398c-1.986,2.244-4.113,4.104-6.375,5.609l-4.185-8.814l-1.06-2.226l-1.514-3.187 l0.632-2.956l1.522-7.141l0.588,0.223c0.472,0.178,0.926,0.392,1.362,0.623c1.932,1.051,3.544,2.627,4.55,4.594 c0.071,0.125,0.125,0.24,0.187,0.365l0.312,0.944l1.701,5.102L272.033,236.398z"/><path style="fill:#fab6b0" d="M240.168,227.21l-1.638,18.377l-0.623,7.051c-0.303,3.437-1.033,6.811-2.172,10.061l-8.734,24.929 c-0.49,1.398-1.781,2.351-3.259,2.431l-3.472-0.401c-1.603-0.187-3.223-0.116-4.808,0.205c-0.766,0.552-4.363-0.41-2.635-2.083 c1.246-1.202,2.502-2.377,4.229-2.537l4.469-0.401l7.853-28.82l0.695-13.07l0.855-15.973c0.142-2.796,1.585-5.36,3.9-6.936 l2.626-1.79L240.168,227.21z"/><path style="fill:#9b86e1" d="M237.452,218.253l2.715,8.957l-1.638,18.377c-2.733-0.641-5.556-1.523-8.458-2.635l0.855-15.973 c0.142-2.796,1.585-5.36,3.9-6.936L237.452,218.253z"/><path style="fill:#fb8688" d="M262.233,228.182c-0.249,0.648-1.221,1.221-2.641,1.682c-5.817,1.956-19.082,2.28-20.291-0.299 l3.338-9.99c0.012-0.075,0.037-0.137,0.062-0.212l0.56-1.657l1.246-0.15c0.573-0.125,1.034-0.286,1.395-0.511 c0.685-0.411,1.071-1.021,1.296-2.043c0-0.012,0-0.012,0-0.012c0.05-0.324,0.074-0.635,0.087-0.922 c0.05-1.096-0.112-1.993-0.498-2.703l7-1.681l0.262,2.852c0.05,0.523,0.087,1.059,0.112,1.594 c0.038,0.486,0.062,0.984,0.075,1.482c0.012,0.747,0.561,1.37,1.308,1.445l1.532,0.199l3.562,7.548L262.233,228.182z"/><path style="fill:#9b86e1" d="M240.412,249.995c0.14,2.642-0.23,5.259-0.906,7.812c0-0.013,0.013-0.038,0.026-0.051 l20.704-0.408c-0.23-1.736-0.255-3.498-0.051-5.246c0.587-5.169,4.123-9.012,5.016-14.053c0.868-4.914-3.651-20.653-3.651-20.653 s-4.2-0.166-6.012-0.332c0.128,0.345,0.206,0.719,0.242,1.116c0.557,6.129-8.273,7.98-10.59,2.279 c-0.41-1.009-0.675-1.996-0.706-2.897c-0.523,0.128-7.033,0.689-7.033,0.689c0.166,3.178,0.791,6.625,0.204,9.777 c-0.344,1.889-0.919,3.727-1.213,5.629c-0.396,2.528-0.013,4.94,0.957,7.301C238.587,243.881,240.246,246.779,240.412,249.995z"/><g><path style="fill:#b62985" d="M265.525,218.296c0.896-4.765-1.025-9.278-4.944-10.545c-2.035-0.657-4.332,0.054-5.763,2.331 c-0.783,1.246-1.015,2.572-0.873,3.809c-0.034,2.245,1.337,3.617,2.345,5.231c1.135,1.817,1.28,4.707-0.252,6.942 c-1.432,2.089-3.582,3.486-5.613,4.365c-1.607,0.696-3.626,2.19-5.263,1.679c0.523,0.29,1.359,0.225,1.969,0.288 c1.079,0.112,2.16,0.264,3.261,0.27c2.302,0.011,4.824-0.727,6.841-2.443c1.806-1.536,3.407-2.797,4.815-4.845 C263.502,223.262,265.054,220.802,265.525,218.296z"/></g><path style="fill:#fab6b0" d="M262.916,196.772c-0.473-0.041-1.012,0.134-1.539,0.447c-0.696-3.184-2.373-6.573-4.438-8.903 c-0.867-1.157-1.863-1.912-2.948-2.365c-0.587-0.286-1.181-0.479-1.774-0.53c-0.408-0.035-0.811-0.049-1.209-0.044 c-0.398-0.006-0.801,0.009-1.209,0.044c-0.594,0.052-1.188,0.244-1.774,0.531c-1.085,0.453-2.081,1.207-2.948,2.364 c-2.066,2.331-3.742,5.719-4.438,8.903c-0.528-0.313-1.066-0.488-1.54-0.447c-1.585,0.138-2.103,2.65-1.667,4.555 c0.553,2.415,2.377,3.172,4.067,3.652c0.774,1.598,1.87,3.163,3.135,4.471c1.324,1.559,3.031,2.716,4.979,3.188 c0.057,0.015,0.115,0.028,0.172,0.04c0.113,0.025,0.223,0.06,0.338,0.08c0.077,0.014,0.156,0.013,0.233,0.023 c0.066,0.008,0.131,0.013,0.197,0.019c0.151,0.013,0.302,0.022,0.454,0.021c0.152,0.001,0.303-0.009,0.454-0.021 c0.065-0.006,0.131-0.011,0.196-0.019c0.078-0.01,0.157-0.009,0.234-0.023c0.115-0.02,0.225-0.055,0.339-0.08 c0.057-0.013,0.115-0.026,0.172-0.04c1.948-0.472,3.657-1.63,4.98-3.19c1.264-1.309,2.36-2.873,3.134-4.47 c1.691-0.481,3.514-1.238,4.067-3.652C265.02,199.422,264.502,196.91,262.916,196.772z"/><g><path style="fill:#b62985" d="M258.065,188.652c0.114-0.333,0.258-0.777,0.292-1.207c0.199-2.501-2.472-4.163-4.164-4.831 c-3.147-1.244-6.359-0.304-9.388,0.994c-2.539,1.088-3.748,3.736-5.101,6.429c-11.066,22.026,7.694,27.45,7.694,27.45 s-0.652-1.465-0.881-1.843c-0.537-0.887-1.007-1.793-1.425-2.762c-0.897-2.075-1.498-4.568-1.498-6.898 c-0.001-3.212,0.642-7.622,2.74-9.952c0.898-0.998,2.225-1.557,3.39-1.914c1.18-0.361,2.189-1.029,3.288-1.473 c0.066,0.747-0.336,1.527-0.549,2.216c1.05-0.817,2.077-1.597,3.012-2.592c0.308,0.871,1.162,1.602,1.635,2.247 c0.807,1.099,1.791,2.04,2.452,3.274c1.207,2.253,1.174,4.746,0.787,7.212c0.159-0.544,0.474-1.114,0.61-1.602 c0.255-0.916,0.474-1.838,0.702-2.763c0.435-1.766,1.04-3.55,0.934-5.432c-0.168-2.961-2.048-5.508-4.402-6.453"/></g><g><g><path style="fill:#0c2c68" d="M250.034,207.552c-1.114-0.348-2.328-1.162-2.842-3.009c-0.042-0.152,0.047-0.309,0.199-0.352 c0.15-0.043,0.309,0.046,0.352,0.199c0.919,3.3,4.314,2.831,4.459,2.81c0.156-0.024,0.301,0.085,0.325,0.24 c0.024,0.156-0.084,0.301-0.24,0.325C252.266,207.768,251.205,207.917,250.034,207.552z"/></g><g><path style="fill:#0c2c68" d="M246.343,200.674c0.036,0.537,0.498,0.943,1.032,0.907c0.533-0.036,0.937-0.501,0.9-1.038 c-0.036-0.537-0.498-0.943-1.032-0.906C246.71,199.673,246.307,200.137,246.343,200.674z"/></g><g><path style="fill:#0c2c68" d="M254.196,200.674c0.037,0.537,0.498,0.943,1.032,0.907c0.533-0.036,0.937-0.501,0.9-1.038 c-0.036-0.537-0.499-0.943-1.032-0.906C254.563,199.673,254.16,200.137,254.196,200.674z"/></g><g><path style="fill:#0c2c68" d="M245.161,198.232c-0.01-0.003-0.02-0.007-0.029-0.011c-0.145-0.063-0.211-0.232-0.148-0.376 c0.753-1.727,2.314-1.665,3.041-1.4c0.147,0.056,0.222,0.219,0.167,0.367c-0.054,0.149-0.203,0.227-0.367,0.169 c-0.051-0.019-1.593-0.564-2.316,1.092C245.449,198.208,245.299,198.275,245.161,198.232z"/></g><g><path style="fill:#0c2c68" d="M253.783,197.124c-0.006-0.009-0.011-0.018-0.015-0.027c-0.072-0.141-0.017-0.313,0.124-0.385 c1.678-0.856,2.846,0.182,3.238,0.849c0.079,0.136,0.032,0.31-0.104,0.389c-0.136,0.08-0.3,0.047-0.391-0.102 c-0.027-0.047-0.873-1.448-2.482-0.626C254.021,197.289,253.862,197.245,253.783,197.124z"/></g><g><path style="fill:#0c2c68" d="M252.039,204.669c-0.153,0-0.276-0.123-0.277-0.275c0-0.153,0.122-0.277,0.275-0.279 c0.006,0,0.534-0.014,0.669-0.299c0.063-0.132,0.123-0.54-0.645-1.499c-0.095-0.119-0.076-0.294,0.043-0.389 c0.119-0.095,0.293-0.076,0.39,0.043c0.72,0.898,0.954,1.58,0.712,2.085c-0.289,0.604-1.13,0.613-1.166,0.613H252.039z"/></g></g><path style="fill:#fab6b0" d="M294.772,313.271l-4.365,2.176c-2.749-1.406-6.85-7.041-9.77-9.816 c-11.279-10.72-21.237-25.121-21.237-25.121l-7.94,6.641c-0.216,0.189-0.447,0.365-0.676,0.528 c-2.922,2.245-6.425,3.679-10.117,3.841c-5.072,0.23-7.588-2.137-8.778-5.004c-1.88-4.491,0.013-9.684,4.098-12.336 c9.455-6.127,15.812-8.562,19.653-9.509c2.867-0.717,5.87,0.149,7.967,2.245c11.592,11.632,29.716,44.121,29.716,44.121 C293.431,311.213,294.664,313.108,294.772,313.271z"/><path style="fill:#fb8688" d="M257.926,326.524l-1.975,10.09l0.095,0.947h-5.437l0.176-0.947v-53.278 c0-0.257,0.013-0.5,0.054-0.744c0.081-0.609,0.297-1.799,0.784-3.07c1.65-4.315,7.426-4.734,9.779-0.758 c1.637,2.759,2.462,6.1,2.719,9.874v0.013C264.838,299.229,261.051,313.12,257.926,326.524z"/><path style="fill:#0c2c68" d="M250.972,351.615L250.972,351.615c-0.831-1.549-1.2-3.304-1.063-5.057l0.7-8.996h5.437 l0.524,8.978c0.099,1.697-0.275,3.389-1.079,4.887l-0.102,0.191C254.442,353.378,251.916,353.376,250.972,351.615z"/><path style="fill:#b62985" d="M239.021,291.645c6.586,0.562,11.986-2.757,11.986-2.757c-0.357-0.357-0.689-0.715-1.008-1.072 c-1.221-1.371-2.15-2.725-2.841-4.045c-4.582-8.746,2.138-18.669,12.01-18.819c3.201-0.048,6.476,4.435,7.373,5.177 c-1.187-2.591-5.961-9.961-6.305-12.781l-20.704,0.408c-0.013,0.013-0.026,0.038-0.026,0.051 c-4.863,8.488-8.45,16.543-9.037,23.589C230.035,286.565,233.851,291.211,239.021,291.645z"/><path style="fill:#0c2c68" d="M289.289,315.002c0.701,7.814,6.547,5.248,19.421-1.039c1.782-0.893,2.117-3.384-1.387-2.85 l-13.464,1.18C292.186,313.22,289.289,315.002,289.289,315.002z"/><g><path style="fill:#112e6c" d="M261.663,204.055h1.89c0.645,0,1.168-0.523,1.168-1.169v-6.787c0-0.645-0.523-1.169-1.168-1.169 h-1.89c-0.645,0-1.168,0.523-1.168,1.169v6.787C260.495,203.532,261.018,204.055,261.663,204.055z"/><g><g><path style="fill:#112e6c" d="M256.329,208.284c6.955-0.063,7.036-4.805,7.036-4.854h-1.472h0.736l-0.736-0.007 c-0.003,0.137-0.129,3.34-5.578,3.389L256.329,208.284z"/></g><path style="fill:#112e6c" d="M253.719,208.554h2.735c0.351,0,0.636-0.285,0.636-0.635v-1.377 c0-0.351-0.285-0.635-0.636-0.635h-2.735c-0.351,0-0.635,0.285-0.635,0.635v1.377 C253.083,208.269,253.368,208.554,253.719,208.554z"/></g><path style="fill:#112e6c" d="M238.528,204.055h1.89c0.645,0,1.169-0.523,1.169-1.169v-6.787c0-0.645-0.523-1.169-1.169-1.169 h-1.89c-0.645,0-1.169,0.523-1.169,1.169v6.787C237.359,203.532,237.882,204.055,238.528,204.055z"/><g><path style="fill:#112e6c" d="M238.737,196.105l1.471-0.036c-0.155-6.346,1.477-9.639,5.635-11.366 c2.893-1.202,6.135-1.359,9.128-0.445c4.902,1.497,7.159,5.268,6.902,11.531l1.472,0.06c0.283-6.929-2.388-11.302-7.942-12.998 c-3.322-1.015-6.915-0.841-10.122,0.492C239.3,185.828,238.616,191.189,238.737,196.105z"/></g></g><g><g><path style="fill:#da73b6" d="M260.784,203.798c-0.061,0.177-0.101,0.351-0.098,0.516 C260.723,204.143,260.753,203.971,260.784,203.798z"/></g></g></g><g><polygon style="fill:#5d3dc6" points="528.27 181.391 539.984 181.391 521.194 197.786 503.091 199.094 478.799 180.786 492.698 180.352"/><path style="fill:#ec3434" d="M494.926,159.779c1.728,6.6-1.823,14.526-4.835,20.654c0,0,16.918,12.093,38.179,0.958 l-1.739-4.634c-2.077-5.023-2.682-10.538-1.719-15.892l3.598-20c0.84-4.665-1.917-9.225-6.43-10.67l-4.816-1.53l-1.503-0.476 c-1.789-0.567-3.654-0.855-5.53-0.855h-1.964c-2.936,0-5.828,0.706-8.434,2.059l0,0l-4.551,2.361 c-3.919,2.03-5.902,6.506-4.778,10.774L494.926,159.779z"/><path style="fill:#fb8688" d="M509.134,132.236L509.134,132.236c2.053,0,3.717-1.664,3.717-3.717v-7.508 c0-0.564-0.457-1.021-1.021-1.021h-5.392c-0.564,0-1.021,0.457-1.021,1.021v7.508 C505.417,130.572,507.081,132.236,509.134,132.236z"/><path style="fill:#fab6b0" d="M522.96,115.851c-0.554,2.408-2.374,3.165-4.07,3.651c-0.769,1.594-1.865,3.154-3.131,4.465 c-1.323,1.56-3.03,2.713-4.974,3.188l-0.169,0.034c-0.113,0.022-0.226,0.056-0.339,0.079c-0.079,0.011-0.158,0.011-0.237,0.023 c-0.068,0.011-0.125,0.011-0.192,0.023c-0.147,0.011-0.305,0.023-0.452,0.023c-0.158,0-0.305-0.011-0.452-0.023 c-0.068-0.011-0.136-0.011-0.203-0.023c-0.079-0.011-0.158-0.011-0.226-0.023c-0.124-0.023-0.226-0.057-0.339-0.079 c-0.056-0.011-0.113-0.023-0.181-0.034c-1.944-0.475-3.651-1.628-4.974-3.188c-1.085-1.13-2.046-2.442-2.781-3.798 c-0.124-0.226-0.237-0.441-0.35-0.667c-0.509-0.136-1.017-0.305-1.503-0.554c-1.153-0.531-2.17-1.402-2.555-3.097 c-0.305-1.345-0.147-2.984,0.543-3.889c0.283-0.384,0.656-0.633,1.119-0.667c0.475-0.045,1.017,0.136,1.537,0.441 c0.701-3.176,2.374-6.568,4.431-8.896c0.87-1.153,1.865-1.899,2.95-2.363c0.588-0.282,1.176-0.475,1.775-0.52 c0.407-0.045,0.814-0.057,1.21-0.045c0.396-0.011,0.803,0,1.21,0.045c0.588,0.045,1.187,0.238,1.763,0.52 c1.085,0.464,2.08,1.21,2.95,2.363c2.069,2.329,3.742,5.72,4.431,8.896c0.226-0.136,0.464-0.237,0.69-0.316 c0.294-0.102,0.588-0.147,0.848-0.124C522.88,111.431,523.389,113.94,522.96,115.851z"/><g><g><g><path style="fill:#123472" d="M503.485,113.027c0.122,0.007,0.244-0.057,0.304-0.173c0.958-1.82,2.635-1.074,2.706-1.042 c0.162,0.075,0.353,0.004,0.43-0.159c0.074-0.162,0.004-0.355-0.159-0.429c-0.793-0.366-2.558-0.558-3.55,1.328 c-0.083,0.158-0.022,0.354,0.137,0.437C503.395,113.012,503.44,113.024,503.485,113.027z"/></g></g><g><g><path style="fill:#123472" d="M512.935,112.207c0.074,0.071,0.186,0.098,0.288,0.058c1.608-0.63,2.263,0.764,2.291,0.824 c0.062,0.136,0.222,0.196,0.36,0.135c0.137-0.062,0.197-0.224,0.135-0.36c-0.302-0.668-1.318-1.758-2.984-1.106 c-0.139,0.055-0.209,0.213-0.153,0.353C512.885,112.148,512.907,112.181,512.935,112.207z"/></g></g><g><g><path style="fill:#123472" d="M509.026,121.818c-0.036-0.116-0.138-0.207-0.268-0.224c-2.034-0.257-1.924-2.083-1.919-2.161 c0.013-0.177-0.12-0.331-0.298-0.345c-0.177-0.013-0.332,0.121-0.345,0.299c-0.064,0.868,0.374,2.582,2.481,2.849 c0.177,0.022,0.338-0.103,0.36-0.281C509.045,121.907,509.04,121.861,509.026,121.818z"/></g></g><g><path style="fill:#123472" d="M510.645,120.8c0.241,0,0.469-0.065,0.668-0.195c0.635-0.414,0.795-1.361,0.429-2.534 l-0.829-3.905c-0.032-0.15-0.175-0.248-0.33-0.215c-0.152,0.032-0.248,0.181-0.215,0.331l0.835,3.931 c0.345,1.109,0.125,1.717-0.194,1.925c-0.328,0.213-0.828,0.091-1.279-0.304c-0.115-0.1-0.302-0.103-0.406,0.01 c-0.102,0.113-0.109,0.274,0.002,0.379C509.765,120.605,510.226,120.8,510.645,120.8z"/></g><path style="fill:#123472" d="M514.968,115.066c-0.046,0.576-0.508,1.009-1.032,0.967c-0.523-0.041-0.911-0.543-0.865-1.119 c0.046-0.576,0.507-1.009,1.031-0.968C514.627,113.988,515.014,114.489,514.968,115.066z"/><path style="fill:#123472" d="M506.562,115.065c-0.046,0.576-0.508,1.009-1.031,0.968c-0.523-0.042-0.911-0.543-0.865-1.119 c0.046-0.577,0.508-1.01,1.032-0.968C506.221,113.988,506.608,114.489,506.562,115.065z"/></g><path style="fill:#ec3434" d="M524.478,131.296c0,0,2.059,0.442,4.084,2.505c1.855,1.89,18.44,31.178,18.44,31.178 c0.593,3.515-11.599,5.496-11.599,5.496l-10.984-18.354L524.478,131.296z"/><path style="fill:#fab6b0" d="M513.06,179.647l-0.947-4.884c-0.184-0.983,0.321-1.964,1.234-2.384l1.042-0.477 c1.153-0.521,2.5-0.367,3.498,0.414l3.678,2.865c0.572,0.455,1.368,0.511,2,0.139l0.205-0.119l2.912-1.695 c0,0,15.762-13.237,20.32-8.525c2.165,3.261,0.463,7.68-3.314,8.661l-14.491,3.757l-3.893,1.012l-2.563,0.669 c-0.521,0.128-1.072,0.117-1.583-0.04l-5.273-1.642c-0.355-0.112-0.725,0.114-0.788,0.483l-0.601,1.857 C514.263,180.463,513.205,180.398,513.06,179.647z"/><path style="fill:#ec3434" d="M495.979,131.296c0,0-2.059,0.442-4.084,2.505c-1.855,1.89-18.44,31.178-18.44,31.178 c-0.594,3.515,11.599,5.496,11.599,5.496l10.984-18.354L495.979,131.296z"/><path style="fill:#fab6b0" d="M507.397,179.647l0.947-4.884c0.184-0.983-0.321-1.964-1.234-2.384l-1.042-0.477 c-1.153-0.521-2.5-0.367-3.498,0.414l-3.678,2.865c-0.572,0.455-1.368,0.511-2,0.139l-0.205-0.119l-2.912-1.695 c0,0-15.762-13.237-20.32-8.525c-2.165,3.261-0.463,7.68,3.314,8.661l14.491,3.757l3.893,1.012l2.563,0.669 c0.521,0.128,1.072,0.117,1.583-0.04l5.273-1.642c0.355-0.112,0.725,0.114,0.788,0.483l0.601,1.857 C506.195,180.463,507.253,180.398,507.397,179.647z"/><g><g><rect x="487.307" y="157.312" style="fill:#5987cf" width="44.169" height="28.441"/><path style="fill:#2c60c4" d="M532.187,185.752h-45.591c-0.61,0-1.105,0.495-1.105,1.105l0,0c0,0.61,0.495,1.105,1.105,1.105 h45.591c0.61,0,1.105-0.495,1.105-1.105l0,0C533.292,186.247,532.798,185.752,532.187,185.752z"/></g><path style="fill:#2c60c4" d="M513.506,173.555c0,2.125-1.723,3.848-3.848,3.848c-2.125,0-3.848-1.723-3.848-3.848 c0-2.125,1.723-3.848,3.848-3.848C511.783,169.707,513.506,171.43,513.506,173.555z"/></g><g><path style="fill:#775dd4" d="M470.799,190.923c0.739,3.261,3.317,5.627,6.384,6.283c0.268,0.055,0.545,0.102,0.822,0.13 c10.634,2.919,22.35,4.989,34.961,6.347c3.437,0.379,6.948,0.693,10.514,0.961l6.163,5.728c0.055,0.046,0.111,0.102,0.175,0.148 c2.772,2.181,6.763-0.342,6.163-3.816l-0.36-2.051c0-0.019-0.009-0.028-0.009-0.037c-0.739-2.014-2.541-3.446-4.647-3.825 l-6.375-1.164c-3.077-0.97-6.107-1.95-9.055-2.938c-12.833-4.305-24.262-8.888-33.086-15.106 c-1.626-0.767-3.502-1.026-5.386-0.601C472.591,181.998,469.782,186.451,470.799,190.923z"/><path style="fill:#123472" d="M512.966,203.682c3.437,0.379,6.948,0.693,10.514,0.961l6.163,5.728 c0.055,0.046,0.111,0.102,0.175,0.148c2.772,2.181,6.763-0.342,6.163-3.816l-0.36-2.051c0-0.019-0.009-0.028-0.009-0.037 c-0.739-2.014-2.541-3.446-4.647-3.825l-6.375-1.164c-3.077-0.97-6.107-1.95-9.055-2.938L512.966,203.682z"/><path style="fill:#775dd4" d="M490.654,210.002c0.065-0.055,0.12-0.102,0.176-0.148l6.246-5.811 c3.188-0.333,6.338-0.675,9.424-1.035c13.748-1.589,26.276-3.483,35.507-6.218c0.277-0.028,0.545-0.074,0.822-0.129 c3.068-0.647,5.636-3.012,6.375-6.283c1.016-4.472-1.783-8.916-6.255-9.932c-1.885-0.425-3.76-0.176-5.387,0.6 c-9.461,6.117-20.677,11.059-33.058,15.199c-3.114,1.053-6.301,2.042-9.553,2.993l0.009,0.037l-5.461,0.998 c-2.097,0.379-3.899,1.811-4.638,3.816c0,0.019-0.009,0.028-0.009,0.046l-0.36,2.051 C483.891,209.66,487.882,212.173,490.654,210.002z"/><path style="fill:#123472" d="M490.654,210.002c0.065-0.055,0.12-0.102,0.176-0.148l6.246-5.811 c3.188-0.333,6.338-0.675,9.424-1.035c-0.499-1.709-1.321-4.472-1.996-6.763c-3.114,1.053-6.301,2.042-9.553,2.993l0.009,0.037 l-5.461,0.998c-2.097,0.379-3.899,1.811-4.638,3.816c0,0.019-0.009,0.028-0.009,0.046l-0.36,2.051 C483.891,209.66,487.882,212.173,490.654,210.002z"/></g><g><path style="fill:#790250" d="M520.439,111.42c-0.09,0.961-0.26,1.899-0.509,2.792c-0.373,1.311-0.95,2.555-1.379,3.843 c-0.407,1.187-0.656,2.419-1.085,3.595c0.215-2.781-0.35-5.268-0.78-7.947c-0.441-2.69-1.583-5.053-2.419-7.563 c-0.486,1.379-0.305,3.561,0.147,4.895c-2.08-0.316-2.86-2.973-3.832-4.714c-0.554,1.967,0.294,3.889,0.045,5.765 c-1.65-0.757-3.075-3.188-3.617-5.098c-0.136,1.04,0.011,2.148-0.147,3.21c-0.136,0.961-0.316,1.865-0.418,2.849 c-0.611-0.034-1.526-1.684-1.775-2.385c-0.305-0.837-0.384-1.809-0.588-2.69c0.079,0.735-0.814,1.978-1.198,2.713 c-0.633,1.21-1.266,2.419-1.718,3.753c-0.633,1.809-0.803,3.787-0.927,5.731c-0.124-0.226-0.237-0.441-0.35-0.667 c-0.509-0.136-1.017-0.305-1.503-0.554c-0.43-0.995-0.87-1.989-1.243-2.996c-0.509-1.413-0.735-2.758-0.769-3.99 c-0.102-3.109,0.916-5.403,0.95-5.652c0.418,1.04,0.803,2.645,1.582,3.391c0.158-1.605,0.011-3.357,0.486-4.895 c0.463-1.492,1.13-2.86,1.82-4.183c-0.011,1.198-0.034,2.544,0.837,3.414c-0.113-1.153,1.164-3.131,1.786-3.956 c0.87-1.187,1.888-2.532,3.131-3.086c-0.181,0.429-0.271,0.836-0.283,1.311c1.492-1.255,4.182-1.458,5.935-1.243 c1.843,0.226,4.409,1.707,5.686,3.278c1.311,1.628,1.662,4.296,2.012,6.41C520.563,108.243,520.608,109.859,520.439,111.42z"/></g><g><path style="fill:#112e6c" d="M498.622,118.845h-1.89c-0.645,0-1.169-0.523-1.169-1.169v-6.787 c0-0.645,0.523-1.169,1.169-1.169h1.89c0.645,0,1.169,0.523,1.169,1.169v6.787C499.791,118.322,499.268,118.845,498.622,118.845 z"/><path style="fill:#112e6c" d="M521.758,118.845h-1.889c-0.645,0-1.169-0.523-1.169-1.169v-6.787 c0-0.645,0.523-1.169,1.169-1.169h1.889c0.646,0,1.169,0.523,1.169,1.169v6.787 C522.927,118.322,522.404,118.845,521.758,118.845z"/><g><path style="fill:#112e6c" d="M521.549,110.895l-1.472-0.036c0.155-6.346-1.477-9.639-5.635-11.366 c-2.893-1.202-6.135-1.359-9.128-0.445c-4.902,1.497-7.159,5.268-6.902,11.531l-1.471,0.06 c-0.283-6.929,2.388-11.302,7.942-12.998c3.322-1.015,6.915-0.841,10.122,0.492 C520.986,100.618,521.67,105.979,521.549,110.895z"/></g><g><g><path style="fill:#112e6c" d="M503.973,123.273c-6.955-0.063-7.036-4.805-7.036-4.854h1.471h-0.736l0.736-0.007 c0.003,0.137,0.129,3.34,5.578,3.389L503.973,123.273z"/></g><path style="fill:#112e6c" d="M506.583,123.543h-2.735c-0.351,0-0.636-0.285-0.636-0.635v-1.377 c0-0.351,0.285-0.636,0.636-0.636h2.735c0.351,0,0.636,0.285,0.636,0.636v1.377 C507.219,123.259,506.934,123.543,506.583,123.543z"/></g></g></g></g></g></svg>